<?xml version="1.0" encoding="UTF-8"?>
<!DOCTYPE svg PUBLIC "-//W3C//DTD SVG 1.1//EN" "http://www.w3.org/Graphics/SVG/1.1/DTD/svg11.dtd">
<!-- Creator: CorelDRAW -->
<svg xmlns="http://www.w3.org/2000/svg" xml:space="preserve" width="0.505402in" height="0.621693in" version="1.1" style="shape-rendering:geometricPrecision; text-rendering:geometricPrecision; image-rendering:optimizeQuality; fill-rule:evenodd; clip-rule:evenodd"
viewBox="0 0 1651.14 2031.02"
 xmlns:xlink="http://www.w3.org/1999/xlink"
 xmlns:xodm="http://www.corel.com/coreldraw/odm/2003">
 <defs>
  <style type="text/css">
   <![CDATA[
    .fil0 {fill:#0B613A;fill-rule:nonzero}
   ]]>
  </style>
 </defs>
 <g id="Layer_x0020_1">
  <metadata id="CorelCorpID_0Corel-Layer"/>
  <path class="fil0" d="M826.35 154.54l-657.12 0 0 164.48 657.12 0 0 -164.48zm-677.84 -41.42l698.53 0c11.55,0 20.71,9.16 20.71,20.71l0 205.9c0,11.55 -9.16,20.71 -20.71,20.71l-698.53 0c-11.55,0 -20.71,-9.16 -20.71,-20.71l0 -205.9c0,-11.55 9.16,-20.71 20.71,-20.71l0 0zm104.34 936.69l-83.63 0 0 93.98 83.63 0 0 -93.98zm-104.34 -41.43l125.06 0c11.55,0 20.71,9.16 20.71,20.71l0 135.41c0,11.55 -9.16,20.71 -20.71,20.71l-125.06 0c-11.55,0 -20.71,-9.56 -20.71,-20.71l0 -135.4c0,-11.55 9.16,-20.72 20.71,-20.72l0 0zm391.1 -461.98l-83.63 0 0 93.98 83.63 0 0 -93.98zm-104.34 -41.43l125.05 0c11.55,0 20.72,9.17 20.72,20.71l0 135.41c0,11.55 -9.17,20.71 -20.72,20.71l-125.05 0c-11.55,0 -20.71,-9.16 -20.71,-20.71l0 -135.41c0,-11.54 9.16,-20.71 20.71,-20.71zm104.34 293.11l-83.63 0 0 94 83.63 0 0 -94zm-104.34 -41.42l125.05 0c11.55,0 20.72,9.56 20.72,20.71l0 135.41c0,11.55 -9.17,20.71 -20.72,20.71l-125.05 0c-11.55,0 -20.71,-9.56 -20.71,-20.71l0 -135.41c0,-11.55 9.16,-20.71 20.71,-20.71l0 0zm104.34 293.11l-83.63 0 0 93.98 83.63 0 0 -93.98zm-104.34 -41.42l125.05 0c11.55,0 20.72,9.16 20.72,20.71l0 135.41c0,11.55 -9.17,20.71 -20.72,20.71l-125.05 0c-11.55,0 -20.71,-9.56 -20.71,-20.71l0 -135.41c0,-11.55 9.16,-20.71 20.71,-20.71zm-182.4 -461.99l-83.64 0 0 93.98 83.64 0 0 -93.98zm-104.35 -41.42l125.06 0c11.55,0 20.71,9.16 20.71,20.71l0 135.41c0,11.55 -9.16,20.71 -20.71,20.71l-125.06 0c-11.55,0 -20.71,-9.16 -20.71,-20.71l0 -135.41c0,-11.55 9.16,-20.71 20.71,-20.71zm677.84 41.42l-83.63 0 0 93.98 83.63 0 0 -93.98zm-104.34 -41.42l125.05 0c11.55,0 20.71,9.16 20.71,20.71l0 135.41c0,11.55 -9.16,20.71 -20.71,20.71l-125.05 0c-11.55,0 -20.71,-9.16 -20.71,-20.71l0 -135.41c0,-11.55 9.56,-20.71 20.71,-20.71zm-469.13 293.11l-83.63 0 0 93.98 83.63 0 0 -93.98zm-104.34 -41.42l125.05 0c11.55,0 20.71,9.56 20.71,20.71l0 135.41c0,11.55 -9.16,20.71 -20.71,20.71l-125.05 0c-11.55,0 -20.72,-9.56 -20.72,-20.71l0 -135.41c0,-11.55 9.17,-20.71 20.72,-20.71zm594.2 125.84c22.69,-19.51 54.55,-27.47 83.63,-18.32l0 -66.11 -83.63 0 0 84.43zm60.13 261.25c-15.13,-31.06 -34.25,-69.7 -60.13,-122.67l0 122.67 60.13 0zm75.27 160.09l-55.36 -118.68 -100.75 0c-11.55,0 -20.71,-9.56 -20.71,-20.71l0 -387.1c0,-11.55 9.16,-20.71 20.71,-20.71l125.05 0c11.55,0 20.71,9.56 20.71,20.71l0 115.9c3.99,5.17 7.97,11.15 11.15,17.92l92.8 176.83c6.37,-9.56 14.33,-17.93 23.88,-24.7l0 -1063.33 -995.64 0 0 1303.87 878.16 0zm205.5 580.66l68.5 138.59c3.59,7.16 12.35,9.96 19.11,6.38l471.93 -233.38c7.16,-3.59 9.96,-12.35 6.37,-19.51l-68.49 -138.59c-3.59,-7.18 -12.35,-9.96 -19.11,-6.38l-471.93 233.38c-7.16,3.59 -9.96,12.35 -6.38,19.51zm-118.28 -491.05l0.4 0.4 58.95 119.48c4.78,10.35 0.8,22.7 -9.56,27.87 -10.35,4.78 -22.7,0.8 -27.47,-9.56l-58.95 -119.48c-20.71,-41.81 -67.71,-38.23 -90.41,-11.15 -13.54,15.94 -16.72,38.64 -3.58,66.51 14.73,31.07 54.95,107.14 71.68,133.42 48.59,76.07 127.84,149.74 208.69,205.5l405 -200.31c-25.09,-87.22 -35.05,-142.97 -43.81,-190.77 -14.73,-81.64 -25.08,-138.59 -103.54,-297.09 -14.34,-29.48 -39.04,-49.39 -66.11,-44.21 -7.56,1.18 -14.74,4.77 -19.91,9.56 -5.18,4.77 -9.16,11.55 -10.35,18.71l56.54 114.29c5.18,10.35 0.8,22.7 -9.56,27.49 -10.35,4.77 -22.7,0.8 -27.47,-9.56l-58.95 -119.48c-14.34,-29.07 -38.23,-45 -66.51,-39.82 -9.56,1.98 -18.71,6.37 -25.89,12.33 -6.37,5.58 -11.15,12.75 -13.13,20.71l56.16 113.51c5.17,10.35 0.78,22.7 -9.57,27.49 -10.35,5.17 -22.7,0.78 -27.47,-9.57l-58.55 -118.28 -1.2 -2.38c-16.32,-34.65 -57.74,-39.83 -79.64,-15.54 -9.56,10.35 -13.54,25.89 -7.58,44.21l58.55 118.28c5.18,10.35 0.8,22.7 -9.56,27.49 -10.35,5.17 -22.7,0.8 -27.49,-9.56l-59.33 -119.87 -123.86 -236.16c-27.47,-55.76 -107.53,-18.73 -79.64,37.43 70.48,142.58 87.6,176.03 141.38,293.51 7.16,15.92 15.52,33.85 25.08,53.76 10.35,22.7 22.7,53.36 36.64,80.85l0.01 -0.01z"/>
 </g>
</svg>
