<?xml version="1.0" encoding="UTF-8"?>
<!DOCTYPE svg PUBLIC "-//W3C//DTD SVG 1.1//EN" "http://www.w3.org/Graphics/SVG/1.1/DTD/svg11.dtd">
<!-- Creator: CorelDRAW -->
<svg xmlns="http://www.w3.org/2000/svg" xml:space="preserve" width="0.674543in" height="0.420079in" version="1.1" style="shape-rendering:geometricPrecision; text-rendering:geometricPrecision; image-rendering:optimizeQuality; fill-rule:evenodd; clip-rule:evenodd"
viewBox="0 0 347.68 216.52"
 xmlns:xlink="http://www.w3.org/1999/xlink"
 xmlns:xodm="http://www.corel.com/coreldraw/odm/2003">
 <defs>
  <style type="text/css">
   <![CDATA[
    .fil0 {fill:#0B613A;fill-rule:nonzero}
   ]]>
  </style>
 </defs>
 <g id="Layer_x0020_1">
  <metadata id="CorelCorpID_0Corel-Layer"/>
  <path class="fil0" d="M150.53 73.83c0,-2.89 -0.83,-5.36 -2.06,-6.6 -1.24,-1.24 -3.3,-2.06 -5.78,-2.06 -1.65,0 -3.3,0.41 -4.53,1.65 -1.24,0.83 -2.06,2.06 -2.06,2.89 0,2.89 0.41,4.95 1.64,6.18 1.24,1.24 2.89,2.06 4.95,2.06 2.07,0 4.13,-0.41 5.78,-1.24 1.24,-0.82 2.07,-2.06 2.07,-2.89zm148.06 -73.82l-249.11 0c-27.22,0 -49.49,22.27 -49.49,49.49l0 117.54c0,27.22 22.27,49.49 49.49,49.49l248.69 0c27.22,0 49.49,-22.27 49.49,-49.49l0 -117.54c0.41,-27.22 -21.86,-49.49 -49.08,-49.49l0 0zm-240.44 180.23c0,4.13 -3.71,7.84 -7.84,7.84 -4.13,0 -7.84,-3.71 -7.84,-7.84l0 -19.79c0,-4.54 3.71,-7.84 7.84,-7.84 2.06,0 4.13,0.82 5.36,2.47 1.65,1.65 2.48,3.3 2.48,5.77l0 19.39zm0 -61.86c0,4.13 -3.71,7.84 -7.84,7.84 -4.13,0 -7.84,-3.71 -7.84,-7.84l0 -19.79c0,-4.54 3.71,-7.84 7.84,-7.84 2.06,0 4.13,0.83 5.36,2.47 1.65,1.65 2.48,3.3 2.48,5.77l0 19.39zm0 -61.86c0,4.13 -3.71,7.84 -7.84,7.84 -4.13,0 -7.84,-3.71 -7.84,-7.84l0 -19.79c0,-4.54 3.71,-7.84 7.84,-7.84 2.06,0 4.13,0.83 5.36,2.48 1.65,1.65 2.48,3.3 2.48,5.77l0 19.38zm65.99 30.52c-4.13,-4.54 -6.18,-10.73 -6.18,-17.74 0,-5.36 2.88,-10.31 8.24,-14.85 5.36,-4.54 10.72,-6.6 16.08,-6.6 7.84,0 14.44,2.47 18.98,7.84 4.54,4.95 6.6,10.72 6.6,18.15 0,6.6 -2.89,11.96 -8.25,16.09 -4.95,3.3 -10.72,5.36 -17.32,5.36 -7.42,-0.41 -13.61,-2.89 -18.15,-8.25zm29.69 77.12c-2.06,3.3 -4.54,5.36 -8.25,5.36 -2.48,0 -4.54,-0.82 -6.19,-2.47 -1.65,-1.65 -2.89,-3.71 -2.89,-6.19 0,-2.47 3.71,-11.13 11.14,-25.57l13.2 -26.39c4.54,-9.07 11.14,-23.09 19.38,-41.24 4.54,-11.14 9.49,-16.91 14.44,-16.91 2.48,0 4.54,0.82 6.18,2.47 2.06,1.65 2.89,3.71 2.89,6.18 0,1.65 -0.41,3.3 -1.65,4.95 -1.64,2.89 -3.71,6.18 -5.77,10.72 -2.89,6.6 -4.54,10.31 -4.95,11.13 -3.3,6.18 -8.25,16.08 -14.43,29.28 0,0.41 -5.78,11.55 -16.5,33 -0.83,3.29 -3.31,8.65 -6.61,15.67zm68.05 -3.72c-5.37,5.37 -11.96,7.84 -20.21,7.84 -7.42,0 -13.61,-2.06 -18.56,-6.6 -5.37,-4.54 -7.84,-10.31 -7.84,-17.32 0,-7.42 2.06,-13.61 6.6,-18.97 4.95,-5.36 11.13,-8.25 19.39,-8.25 7.01,0 13.61,2.06 18.97,5.77 6.19,4.54 9.49,10.31 9.49,17.32 0.41,8.25 -2.48,14.85 -7.84,20.21zm83.72 19.8c0,4.13 -3.71,7.84 -7.84,7.84 -4.13,0 -7.84,-3.71 -7.84,-7.84l0 -19.79c0,-4.54 3.71,-7.84 7.84,-7.84 2.06,0 4.13,0.83 5.36,2.48 1.65,1.65 2.48,3.3 2.48,5.77l0 19.38zm0 -61.86c0,4.13 -3.71,7.84 -7.84,7.84 -4.13,0 -7.84,-3.71 -7.84,-7.84l0 -19.8c0,-4.54 3.71,-7.83 7.84,-7.83 2.06,0 4.13,0.82 5.36,2.47 1.65,1.65 2.48,3.3 2.48,5.77l0 19.39zm0 -61.86c0,4.13 -3.71,7.84 -7.84,7.84 -4.13,0 -7.84,-3.71 -7.84,-7.84l0 -19.79c0,-4.54 3.71,-7.84 7.84,-7.84 2.06,0 4.13,0.83 5.36,2.47 1.65,1.65 2.48,3.3 2.48,5.77l0 19.39zm-96.51 80.01c-2.06,-1.24 -4.54,-1.65 -7.42,-1.65 -2.48,0 -4.54,0.83 -6.18,2.48 -1.24,1.65 -2.06,4.12 -2.06,7.42 0,2.06 0.82,3.71 2.47,4.95 1.65,1.24 4.13,1.65 7.42,1.65 3.3,0 5.78,-0.83 7.01,-2.07 1.24,-1.24 2.06,-4.13 2.06,-8.24 -0.41,-1.65 -1.24,-3.3 -3.3,-4.54z"/>
 </g>
</svg>
