<?xml version="1.0" encoding="UTF-8"?>
<!DOCTYPE svg PUBLIC "-//W3C//DTD SVG 1.1//EN" "http://www.w3.org/Graphics/SVG/1.1/DTD/svg11.dtd">
<!-- Creator: CorelDRAW -->
<svg xmlns="http://www.w3.org/2000/svg" xml:space="preserve" width="0.621677in" height="0.621685in" version="1.1" style="shape-rendering:geometricPrecision; text-rendering:geometricPrecision; image-rendering:optimizeQuality; fill-rule:evenodd; clip-rule:evenodd"
viewBox="0 0 147.05 147.05"
 xmlns:xlink="http://www.w3.org/1999/xlink"
 xmlns:xodm="http://www.corel.com/coreldraw/odm/2003">
 <defs>
  <style type="text/css">
   <![CDATA[
    .fil0 {fill:#0B613A;fill-rule:nonzero}
   ]]>
  </style>
 </defs>
 <g id="Layer_x0020_1">
  <metadata id="CorelCorpID_0Corel-Layer"/>
  <g id="_2385912762640">
   <g>
    <path class="fil0" d="M40.19 36.44l33.61 12.42 -10.03 16.72c-0.97,1.62 -1,3.64 -0.07,5.29 0.93,1.65 2.68,2.66 4.57,2.66l10.5 0c1.39,0 2.73,-0.55 3.71,-1.54l14.56 -14.56c0.02,0.01 0.03,0.02 0.04,0.03l37.83 13.97c0.98,0.34 2,0.51 3.01,0.51 1.86,0 3.72,-0.57 5.27,-1.68 2.41,-1.7 3.84,-4.49 3.84,-7.44 0,-14.7 -10,-27.33 -24.31,-30.69l-67 -15.77 -9.35 -14.03c-0.98,-1.46 -2.61,-2.34 -4.37,-2.34l-5.25 0c-1.57,0 -3.06,0.71 -4.06,1.92 -1,1.21 -1.4,2.82 -1.09,4.36l5.25 26.26c0.36,1.79 1.62,3.26 3.33,3.9l-0 0z"/>
    <path class="fil0" d="M63.9 96.87l-8.94 13.42 34.32 0 0 -15.75 -21.01 0c-1.76,0 -3.4,0.88 -4.37,2.34l0 0z"/>
    <path class="fil0" d="M141.8 89.28l-42.02 0c-2.9,0 -5.25,2.35 -5.25,5.25l0 31.51 -5.25 0 0 -10.5 -36.76 0 0 15.75c0,2.9 2.35,5.25 5.25,5.25l5.25 0c0,5.79 4.71,10.5 10.5,10.5 5.79,0 10.5,-4.71 10.5,-10.5l31.51 0c0,5.79 4.71,10.5 10.5,10.5 5.79,0 10.5,-4.71 10.5,-10.5l5.25 0c2.9,0 5.25,-2.35 5.25,-5.25l0 -36.76c0,-2.9 -2.35,-5.25 -5.25,-5.25zm-68.27 52.52c-2.9,0 -5.25,-2.36 -5.25,-5.25 0,-2.9 2.36,-5.25 5.25,-5.25 2.9,0 5.25,2.36 5.25,5.25 0,2.9 -2.36,5.25 -5.25,5.25zm52.52 0c-2.9,0 -5.25,-2.36 -5.25,-5.25 0,-2.9 2.36,-5.25 5.25,-5.25 2.9,0 5.25,2.36 5.25,5.25 0,2.9 -2.36,5.25 -5.25,5.25z"/>
    <path class="fil0" d="M49.62 58.33l-21.01 -10.5c-1.48,-0.74 -3.22,-0.74 -4.7,0l-21.01 10.5c-0.18,0.09 -0.33,0.23 -0.49,0.34l23.85 11.92 23.85 -11.92c-0.17,-0.11 -0.31,-0.25 -0.49,-0.34l-0 0z"/>
    <path class="fil0" d="M-0 89.28c0,1.99 1.12,3.81 2.9,4.7l20.73 11.06 0 -29.89 -23.63 -11.82 0 25.95z"/>
    <path class="fil0" d="M52.52 63.34l-23.63 11.82 0 29.89 20.73 -11.06c1.78,-0.89 2.9,-2.71 2.9,-4.7l0 -25.95z"/>
    <path class="fil0" d="M75.46 15.62l29.4 6.92 -11.39 -15.18c-0.99,-1.32 -2.55,-2.1 -4.2,-2.1l-10.5 0c-1.82,0 -3.51,0.94 -4.47,2.49 -0.96,1.55 -1.04,3.48 -0.23,5.11l1.38 2.76z"/>
   </g>
  </g>
 </g>
</svg>
