<?xml version="1.0" encoding="UTF-8"?>
<!DOCTYPE svg PUBLIC "-//W3C//DTD SVG 1.1//EN" "http://www.w3.org/Graphics/SVG/1.1/DTD/svg11.dtd">
<!-- Creator: CorelDRAW -->
<svg xmlns="http://www.w3.org/2000/svg" xml:space="preserve" width="0.626091in" height="0.621697in" version="1.1" style="shape-rendering:geometricPrecision; text-rendering:geometricPrecision; image-rendering:optimizeQuality; fill-rule:evenodd; clip-rule:evenodd"
viewBox="0 0 301.69 299.57"
 xmlns:xlink="http://www.w3.org/1999/xlink"
 xmlns:xodm="http://www.corel.com/coreldraw/odm/2003">
 <defs>
  <style type="text/css">
   <![CDATA[
    .fil0 {fill:#0B613A;fill-rule:nonzero}
   ]]>
  </style>
 </defs>
 <g id="Layer_x0020_1">
  <metadata id="CorelCorpID_0Corel-Layer"/>
  <path class="fil0" d="M23.25 172.85l-23.25 -9.46 0 -22.65 23.25 9.46 0 22.65zm123.85 -126.71l-23.25 -9.46 0 -22.66 23.25 9.46 -0 22.65zm3.74 -29.2l-0.11 -0.04 -20.7 -8.43 20.8 -8.46 20.81 8.46 -20.8 8.47zm27 19.75l-23.25 9.46 0 -22.65 23.25 -9.46 0 22.66zm-30.74 262.89l-23.25 -9.46 0 -22.65 23.25 9.46 0 22.66zm3.74 -29.21l-20.8 -8.46 20.8 -8.46 20.81 8.46 -20.81 8.46zm27 19.75l-23.25 9.46 0 -22.66 23.25 -9.46 0 22.65zm93.12 -117.26l-23.25 -9.46 0 -22.65 23.25 9.46 0 22.65zm3.74 -29.2l-20.81 -8.46 20.81 -8.47 20.81 8.47 -20.81 8.46zm27 19.74l-23.25 9.46 0 -22.65 23.25 -9.46 0 22.65zm-73.53 -16.58l-6.76 0c-0.99,-18.92 -9.25,-35.79 -22.3,-47.91 -12.21,-11.43 -27.9,-18.01 -44.5,-18.89l0 -6.75c0,-2.06 -1.67,-3.74 -3.74,-3.74 -2.07,0 -3.74,1.68 -3.74,3.74l0 6.76c-33.09,1.83 -64.88,27.67 -66.83,66.79l-6.72 0c-2.06,0 -3.74,1.68 -3.74,3.74 0,2.06 1.67,3.74 3.74,3.74l6.71 0c1.89,36 30.8,64.89 66.83,66.78l0 6.77c0,2.06 1.68,3.74 3.74,3.74 2.06,0 3.74,-1.67 3.74,-3.74l0 -6.77c35.91,-1.88 64.92,-30.43 66.81,-66.78l6.75 0c2.06,0 3.74,-1.68 3.74,-3.74 0,-2.06 -1.67,-3.74 -3.74,-3.74l0 0zm-35.65 -43.71c-7.59,1.21 -3.43,18.84 -16.54,0.54 -0.33,-0.48 -0.15,-1.35 -0.18,-2.12 -0.33,-0.07 -0.73,-0.15 -1.61,-0.33 5.7,-3.05 4.43,-2.43 2.82,-4.71 0.14,-0.04 0.62,-0.22 1.13,-0.37 -0.95,-2.78 -3.21,-1.75 -5.19,-1.83 0.26,-0.66 0.44,-1.06 0.66,-1.57 -1.32,-0.83 -2.64,-1.67 -3.96,-2.51 8.38,2.61 16.16,6.97 22.88,12.89zm-35.99 -15.51c3.03,0.27 6.01,0.81 8.94,1.5 0.19,0.1 0.38,0.2 0.57,0.3 1.17,0.62 2.38,1.06 3.55,1.61 -1.83,3.59 -2.97,1.51 -4.94,-0.26 -2.32,2.71 3.34,2.48 2.45,4.68 -0.12,0.29 -2.98,-0.24 -3.29,-0.29 -0.07,0.15 -0.18,0.29 -0.29,0.4 0.69,0.55 1.39,1.06 2.3,1.75 -3.95,0.51 -5.2,-3.21 -11.29,-3.55 3.93,-3.28 5.55,-3.61 2.01,-6.15zm38.05 100.91c0.44,6.62 -6.32,6.4 -9.43,10.75 -1.18,1.54 -1.39,2.88 -5.18,7.46 -1.37,0.71 -2.76,1.37 -4.18,1.97 -0.22,-0.01 -0.4,0.04 -0.65,-0.01 0.02,0.1 -0.01,0.16 0.01,0.25 -5.51,2.27 -11.23,3.82 -17.15,4.45 0.07,-1.89 0.79,1.16 3.36,-20.26 0.22,-2.05 -0.51,-3.73 -2.27,-4.75 -4.27,-2.52 -6.5,-6.72 -9.03,-10.67 -0.55,-0.88 -0.4,-1.83 -0.4,-2.89 0.07,-3.33 1.61,-5.85 3.18,-8.59 1.39,-2.45 -0.18,-4.35 -2.96,-4.06 -2.38,0.22 -4.13,-1.1 -5.45,-2.82 -3.8,-5.03 -4.08,-1.52 -7.42,-4.68 -2.81,-2.8 -3.88,-0.13 -5.92,-1.09 -11.39,-5.75 -5,-2.05 -16.34,-16.12 -0.4,-0.47 -1.17,-0.66 -2.05,-1.17 0.55,3.69 3.47,5.7 4.86,8.74 -1.41,-0.28 -7.61,-10.92 -9.76,-12.17 -10.66,-6.29 -2.02,-13.53 -7.2,-20.61 10.88,-14.22 28,-24.21 48.41,-24.8 -1.94,6.65 -5.53,1.09 -6.78,5.36 -0.64,2.46 -13.42,6.72 -6.1,10.6 2.52,1.33 7.74,3.23 10.45,4.13 3.32,1.01 0.68,3.58 2.82,4.24 0.66,0.22 1.53,-0.07 2.27,-0.26 0.11,-0.04 0.15,-0.99 -0.07,-1.39 -2.12,-3.91 3.9,-2.07 2.19,-6.43 -1.21,-3.03 -2.54,-7.06 0.62,-6.62 7.73,1.01 5.96,2.79 8.81,5.08 2.32,1.85 2.11,-1.73 4.2,-1.97 0.51,-0.04 1.35,0.77 1.57,1.39 1.76,5.06 5.42,6.43 6.65,8.11 0.88,0.98 0.84,1.82 -0.4,2.48 -7.85,4 -12.55,-1.09 -13.74,5.08 4.76,-2.72 3.71,-1.99 5.81,-2.19 0,2.14 -0.13,3.85 1.9,3.73 3.56,-0.25 3.51,-1.79 6.87,-5.92 3.49,3.8 2.41,2.4 3.58,4.64 -11.98,0 -8.8,5.07 -14.91,3.76 0.92,-0.62 1.72,-1.13 2.48,-1.65 0,-0.14 -0.04,-0.29 -0.07,-0.44 -5.12,0.9 -13.62,9.71 -12.72,12.46 0.39,0.98 -6.55,2.54 -4.68,7.38 0.4,1.06 1.1,2.48 -0.44,3.87 -4.53,-6.4 -3.72,-6.01 -12.79,-4.27 -4.24,0.84 -7.05,5.41 -5.63,9.14 1.46,3.87 6.47,4.31 8.3,1.46 0.51,-0.77 1.57,-1.31 2.52,-1.53 2.7,-0.59 0.31,2.99 -0.22,4.06 -2.17,4.33 6.59,-0.16 4.97,5 -0.73,2.49 0.69,4.39 3.29,4.39 2.75,0 4.25,0.57 5.55,-0.62 3.54,-3.54 3.82,-0.15 5.96,-1.57 1.02,-0.62 1.86,-0.4 2.89,0.07 0.95,0.44 2.08,0.47 3.07,0.84 7.95,2.71 7.59,4.3 11.26,4.75 0.91,0.15 1.83,0.73 2.6,1.31 2.69,2.12 1.76,2.86 0.29,6 1.17,-0.22 2.16,-0.37 3.47,-0.59 -0.62,0.47 -0.99,0.77 -1.43,1.13 0.37,0.25 0.7,0.51 1.13,0.84 0.73,-1.82 1.79,-1.5 3.25,-0.84 1.52,0.69 6.53,1.58 10.38,3.25 5.48,2.53 -3.96,7.61 -3.62,12.8zm-167.59 -44.85l-20.8 -8.46 20.8 -8.47 20.81 8.47 -20.81 8.46zm27 19.74l-23.25 9.46 0 -22.65 23.25 -9.46 0 22.65z"/>
 </g>
</svg>
