<?xml version="1.0" encoding="UTF-8"?>
<!DOCTYPE svg PUBLIC "-//W3C//DTD SVG 1.1//EN" "http://www.w3.org/Graphics/SVG/1.1/DTD/svg11.dtd">
<!-- Creator: CorelDRAW -->
<svg xmlns="http://www.w3.org/2000/svg" xml:space="preserve" width="0.889996in" height="0.606827in" version="1.1" style="shape-rendering:geometricPrecision; text-rendering:geometricPrecision; image-rendering:optimizeQuality; fill-rule:evenodd; clip-rule:evenodd"
viewBox="0 0 886.67 604.56"
 xmlns:xlink="http://www.w3.org/1999/xlink"
 xmlns:xodm="http://www.corel.com/coreldraw/odm/2003">
 <defs>
  <style type="text/css">
   <![CDATA[
    .fil0 {fill:#0B613A;fill-rule:nonzero}
    .fil1 {fill:white;fill-rule:nonzero}
   ]]>
  </style>
 </defs>
 <g id="Layer_x0020_1">
  <metadata id="CorelCorpID_0Corel-Layer"/>
  <g id="_2385924023296">
   <path class="fil0" d="M259.36 503.8c3.49,13.2 3.49,27.1 0,40.3 -5.98,23.23 -22.01,42.58 -43.71,52.8 -21.71,10.21 -46.84,10.21 -68.55,0 -21.71,-10.22 -37.74,-29.57 -43.71,-52.8 -3.49,-13.21 -3.49,-27.1 0,-40.3 0,-0.2 0,-0.2 0.2,-0.4 0.39,-2.01 1,-3.97 1.81,-5.84 2.82,-8.37 7.04,-16.21 12.49,-23.18 1.25,-1.75 2.66,-3.37 4.24,-4.84 1.25,-1.62 2.66,-3.11 4.23,-4.43 12.85,-12.01 29.26,-19.5 46.75,-21.36 2.82,-0.2 5.44,-0.41 8.27,-0.41 2.82,0 5.44,0.2 8.26,0.41l-0.01 0c17.49,1.86 33.9,9.36 46.75,21.36 1.57,1.33 2.98,2.81 4.23,4.43 1.57,1.46 2.99,3.09 4.23,4.84 5.45,6.97 9.67,14.8 12.5,23.18 0.82,1.88 1.42,3.83 1.82,5.84 0.2,0.2 0.2,0.2 0.2,0.4l0 0zm325.04 -503.79l-564.24 0c-11.12,0.04 -20.12,9.03 -20.16,20.15l0 503.77c0.04,11.12 9.04,20.12 20.16,20.15l42.11 0c-1.25,-6.64 -1.86,-13.39 -1.82,-20.15 -0.07,-8.4 0.8,-16.78 2.63,-24.99l0 -12.5 5.24 -5.04 -0.01 0c4.23,-11.4 10.22,-22.07 17.73,-31.64 1.86,-2.72 3.95,-5.28 6.25,-7.66 2.33,-2.57 4.83,-4.99 7.46,-7.25 19.09,-17.69 43.43,-28.66 69.32,-31.23 5.24,-0.4 8.66,-0.61 12.3,-0.61 3.63,0 7.05,0.2 10.48,0.4 26.81,2.42 52.05,13.7 71.74,32.05 2.48,2.07 4.77,4.37 6.85,6.85 2.4,2.46 4.62,5.09 6.65,7.86 7.29,9.38 13.08,19.85 17.13,31.04l5.24 4.84 0.2 12.5 -0.01 -0.01c1.81,8.34 2.69,16.85 2.62,25.39 -0,6.75 -0.55,13.49 -1.61,20.15l285.55 0c-1.22,-6.64 -1.82,-13.39 -1.81,-20.15 -0.1,-23.74 6.92,-46.98 20.15,-66.7l0 -437.08c0,-5.34 -2.12,-10.47 -5.9,-14.25 -3.79,-3.78 -8.91,-5.9 -14.25,-5.9l-0 0.01zm60.45 101.77l0 180.34 228.91 0c-15.95,-49.39 -46.23,-92.91 -87,-125.03 -40.77,-32.12 -90.17,-51.37 -141.92,-55.32l0 0.01zm221.66 321.41l20.15 0 0 -60.45c0.01,-13.49 -1,-26.96 -3.02,-40.3l-238.79 0 0 96.93c18.31,-10.79 39.2,-16.43 60.45,-16.33 32.06,0.03 62.8,12.77 85.46,35.44 22.67,22.67 35.42,53.41 35.45,85.47 0.01,6.76 -0.6,13.5 -1.82,20.15l42.12 0c11.12,-0.04 20.12,-9.03 20.15,-20.15l0 -60.45 -20.15 0c-11.13,0 -20.15,-9.02 -20.15,-20.15 0,-11.13 9.03,-20.15 20.15,-20.15l0 0zm-83.02 81.01c-0.2,-0.41 -0.2,-0.61 -0.4,-0.8 -0.39,-2.01 -1,-3.97 -1.82,-5.84 -3.39,-10.48 -9.12,-20.05 -16.73,-28.01 -1.25,-1.62 -2.66,-3.1 -4.23,-4.43 -14.87,-14.03 -34.57,-21.82 -55.01,-21.76 -2.29,-0.07 -4.59,0.07 -6.86,0.4 -1.63,0.01 -3.25,0.21 -4.84,0.61 -3.55,0.43 -7.06,1.17 -10.48,2.22 -1.41,0.4 -2.62,0.8 -3.82,1.21 -7.99,2.63 -15.49,6.58 -22.16,11.69 -2.08,1.44 -4.04,3.06 -5.85,4.84 -0.41,0.15 -0.77,0.43 -1,0.8 -1.97,1.73 -3.79,3.62 -5.44,5.64 -12.96,14.69 -20.13,33.6 -20.15,53.19 -0.05,6.74 0.83,13.45 2.62,19.95 -0.86,0.17 -1.74,0.24 -2.62,0.2l2.62 0c5.99,23.23 22.01,42.58 43.72,52.79 21.7,10.21 46.84,10.21 68.54,0 21.71,-10.21 37.74,-29.57 43.72,-52.79 0.11,-0.11 0.18,-0.25 0.2,-0.41 0.61,-2.41 1,-4.84 1.41,-7.25 1.34,-8.27 1.34,-16.71 0,-24.99 -0.41,-2.42 -0.8,-4.84 -1.41,-7.26l0 0z"/>
   <path class="fil1" d="M455.46 383.38c1.33,19.94 -19.05,19.29 -28.42,32.39 -3.55,4.65 -4.2,8.69 -15.62,22.49 -4.12,2.13 -8.32,4.12 -12.61,5.95 -0.68,-0.04 -1.22,0.13 -1.95,-0.02 0.06,0.29 -0.03,0.48 0.02,0.75 -16.6,6.86 -33.85,11.53 -51.71,13.41 0.22,-5.7 2.39,3.49 10.13,-61.09 0.67,-6.16 -1.53,-11.23 -6.82,-14.32 -12.89,-7.59 -19.61,-20.27 -27.22,-32.17 -1.65,-2.65 -1.21,-5.5 -1.21,-8.7 0.22,-10.03 4.84,-17.63 9.58,-25.9 4.19,-7.37 -0.54,-13.11 -8.92,-12.23 -7.17,0.66 -12.45,-3.31 -16.42,-8.5 -11.45,-15.15 -12.29,-4.57 -22.37,-14.1 -8.46,-8.45 -11.7,-0.42 -17.85,-3.3 -34.33,-17.32 -15.08,-6.17 -49.25,-48.59 -1.22,-1.43 -3.53,-1.98 -6.17,-3.53 1.66,11.12 10.46,17.19 14.65,26.33 -4.25,-0.85 -22.95,-32.92 -29.42,-36.69 -32.12,-18.97 -6.11,-40.8 -21.71,-62.13 32.79,-42.87 84.4,-73 145.95,-74.77 -5.84,20.05 -16.66,3.29 -20.45,16.15 -1.94,7.42 -40.46,20.25 -18.41,31.94 7.59,4.01 23.34,9.73 31.52,12.45 10,3.05 2.04,10.8 8.49,12.79 1.98,0.66 4.62,-0.22 6.83,-0.78 0.33,-0.11 0.43,-2.98 -0.22,-4.19 -6.41,-11.79 11.75,-6.24 6.61,-19.39 -3.66,-9.14 -7.66,-21.27 1.86,-19.95 23.3,3.06 17.97,8.43 26.55,15.31 6.99,5.59 6.38,-5.21 12.68,-5.95 1.53,-0.11 4.08,2.32 4.73,4.19 5.32,15.26 16.35,19.38 20.05,24.46 2.66,2.97 2.55,5.5 -1.21,7.49 -23.67,12.06 -37.82,-3.29 -41.42,15.31 14.35,-8.21 11.16,-5.99 17.51,-6.61 0,6.46 -0.37,11.6 5.73,11.23 10.74,-0.76 10.58,-5.41 20.71,-17.85 10.52,11.45 7.26,7.24 10.79,13.99 -36.12,0 -26.52,15.27 -44.95,11.35 2.77,-1.87 5.19,-3.41 7.49,-4.96 0,-0.44 -0.11,-0.89 -0.22,-1.33 -15.44,2.73 -41.05,29.27 -38.34,37.58 1.18,2.96 -19.75,7.67 -14.1,22.26 1.22,3.2 3.31,7.48 -1.33,11.68 -13.67,-19.3 -11.2,-18.13 -38.56,-12.89 -12.77,2.53 -21.26,16.31 -16.96,27.55 4.4,11.67 19.49,12.99 25.02,4.4 1.53,-2.31 4.74,-3.96 7.6,-4.62 8.15,-1.78 0.94,9.01 -0.67,12.23 -6.53,13.06 19.87,-0.48 14.99,15.09 -2.2,7.5 2.09,13.22 9.92,13.22 8.3,0 12.82,1.72 16.75,-1.87 10.67,-10.68 11.5,-0.44 17.96,-4.74 3.08,-1.87 5.62,-1.21 8.71,0.22 2.86,1.32 6.28,1.43 9.24,2.53 23.97,8.16 22.88,12.96 33.94,14.33 2.75,0.44 5.51,2.19 7.82,3.96 8.12,6.39 5.31,8.63 0.89,18.07 3.53,-0.67 6.51,-1.09 10.46,-1.76 -1.87,1.43 -2.98,2.31 -4.3,3.41 1.1,0.77 2.09,1.54 3.41,2.54 2.21,-5.5 5.4,-4.52 9.81,-2.54 4.59,2.08 19.69,4.77 31.29,9.81 16.51,7.64 -11.93,22.96 -10.91,38.58zm-6.22 -257.46c-22.87,3.64 -10.34,56.8 -49.85,1.64 -1,-1.44 -0.44,-4.08 -0.55,-6.39 -0.99,-0.22 -2.2,-0.44 -4.85,-0.99 17.18,-9.19 13.36,-7.32 8.49,-14.22 0.44,-0.1 1.88,-0.66 3.41,-1.09 -2.86,-8.38 -9.68,-5.3 -15.64,-5.51 0.77,-1.98 1.31,-3.2 1.98,-4.73 -3.99,-2.51 -7.97,-5.04 -11.95,-7.56 25.26,7.87 48.72,21.02 68.96,38.86zm-108.49 -46.77c9.14,0.81 18.11,2.44 26.95,4.53 0.58,0.3 1.14,0.62 1.71,0.91 3.53,1.87 7.17,3.2 10.69,4.85 -5.51,10.84 -8.96,4.56 -14.88,-0.77 -7,8.18 10.07,7.47 7.38,14.11 -0.36,0.86 -8.98,-0.74 -9.92,-0.89 -0.22,0.43 -0.54,0.89 -0.88,1.21 2.09,1.65 4.19,3.19 6.93,5.28 -11.92,1.55 -15.67,-9.68 -34.05,-10.69 11.86,-9.88 16.73,-10.87 6.04,-18.54z"/>
  </g>
 </g>
</svg>
