<?xml version="1.0" encoding="UTF-8"?>
<!DOCTYPE svg PUBLIC "-//W3C//DTD SVG 1.1//EN" "http://www.w3.org/Graphics/SVG/1.1/DTD/svg11.dtd">
<!-- Creator: CorelDRAW -->
<svg xmlns="http://www.w3.org/2000/svg" xml:space="preserve" width="0.686441in" height="0.696669in" version="1.1" style="shape-rendering:geometricPrecision; text-rendering:geometricPrecision; image-rendering:optimizeQuality; fill-rule:evenodd; clip-rule:evenodd"
viewBox="0 0 164.17 166.61"
 xmlns:xlink="http://www.w3.org/1999/xlink"
 xmlns:xodm="http://www.corel.com/coreldraw/odm/2003">
 <defs>
  <style type="text/css">
   <![CDATA[
    .fil0 {fill:#0B613A;fill-rule:nonzero}
   ]]>
  </style>
 </defs>
 <g id="Layer_x0020_1">
  <metadata id="CorelCorpID_0Corel-Layer"/>
  <g id="_2384970119232">
   <path class="fil0" d="M151.59 116.03l4.12 -5.5 -9.22 -9.22 -5.5 4.12c-2.32,-1.38 -4.85,-2.42 -7.55,-3.13l-0.96 -6.8 -13.03 0 -0.96 6.8c-2.68,0.7 -5.24,1.74 -7.55,3.13l-5.5 -4.12 -9.22 9.22 4.12 5.5c-1.35,2.32 -2.42,4.85 -3.13,7.55l-6.8 0.96 0 13.02 6.8 0.97c0.7,2.68 1.77,5.24 3.13,7.55l-4.12 5.5 9.22 9.22 5.5 -4.12c2.32,1.35 4.87,2.42 7.55,3.13l0.96 6.8 13.03 0 0.96 -6.8c2.71,-0.7 5.24,-1.77 7.55,-3.13l5.5 4.12 9.22 -9.22 -4.12 -5.5c1.38,-2.32 2.42,-4.87 3.13,-7.55l6.8 -0.96 0 -13.02 -6.8 -0.96c-0.7,-2.71 -1.75,-5.24 -3.13,-7.55zm-25.63 29.57c-8.02,0 -14.54,-6.51 -14.54,-14.54 0,-8.05 6.51,-14.56 14.54,-14.56 8.05,0 14.56,6.51 14.56,14.56 0,8.02 -6.51,14.54 -14.56,14.54z"/>
   <path class="fil0" d="M100.79 87.29l0 -8.34 -4.35 -0.63c-0.44,-1.74 -1.12,-3.36 -2.01,-4.82l2.63 -3.52 -5.89 -5.89 -3.52 2.63c-1.48,-0.89 -3.1,-1.54 -4.82,-2.01l-0.63 -4.35 -8.34 0 -0.62 4.35c-1.72,0.44 -3.36,1.12 -4.82,2.01l-3.52 -2.63 -5.89 5.89 2.63 3.52c-0.86,1.48 -1.54,3.1 -2.01,4.82l-4.35 0.62 0 8.34 4.35 0.63c0.44,1.72 1.12,3.36 2.01,4.85l-2.63 3.52 5.89 5.89 3.52 -2.63c1.48,0.86 3.13,1.54 4.82,2.01l0.62 4.35 8.34 0 0.6 -4.35c1.74,-0.44 3.36,-1.12 4.82,-2.01l3.52 2.63 5.89 -5.89 -2.63 -3.52c0.89,-1.48 1.54,-3.13 2.01,-4.85l4.38 -0.63zm-22.74 5.13c-5.13,0 -9.3,-4.17 -9.3,-9.3 0,-5.16 4.17,-9.33 9.3,-9.33 5.16,0 9.33,4.17 9.33,9.33 -0.03,5.16 -4.19,9.3 -9.33,9.3z"/>
   <path class="fil0" d="M85.18 118.86l-74.76 0 0 -82.37 103.23 0 0 53.79 10.42 0 0 -64.21 -124.07 0 0 92.79c0,5.76 4.66,10.42 10.42,10.42l74.76 0 0 -10.42z"/>
   <path class="fil0" d="M124.08 10.42c0,-5.76 -4.66,-10.42 -10.42,-10.42l-103.23 0c-5.76,0 -10.42,4.66 -10.42,10.42l0 10.45 124.07 0 -0 -10.45zm-111.05 2.61c-1.43,0 -2.6,-1.17 -2.6,-2.61 0,-1.43 1.17,-2.6 2.6,-2.6 1.43,0 2.61,1.17 2.61,2.6 0,1.46 -1.15,2.61 -2.61,2.61zm9.46 0c-1.43,0 -2.6,-1.17 -2.6,-2.61 0,-1.43 1.17,-2.6 2.6,-2.6 1.43,0 2.61,1.17 2.61,2.6 0,1.46 -1.17,2.61 -2.61,2.61zm9.46 0c-1.43,0 -2.6,-1.17 -2.6,-2.61 0,-1.43 1.17,-2.6 2.6,-2.6 1.43,0 2.6,1.17 2.6,2.6 0,1.46 -1.17,2.61 -2.6,2.61z"/>
   <path class="fil0" d="M21.34 88.7l17.22 0c1.43,0 2.61,-1.17 2.61,-2.61 0,-1.43 -1.17,-2.6 -2.61,-2.6l-17.22 0c-1.43,0 -2.61,1.17 -2.61,2.6 0,1.43 1.17,2.61 2.61,2.61z"/>
   <path class="fil0" d="M48.98 94.3l-27.64 0c-1.43,0 -2.61,1.17 -2.61,2.61 0,1.43 1.17,2.6 2.61,2.6l27.64 0c1.43,0 2.6,-1.17 2.6,-2.6 0,-1.43 -1.17,-2.61 -2.6,-2.61z"/>
   <path class="fil0" d="M48.98 105.08l-27.64 0c-1.43,0 -2.61,1.17 -2.61,2.6 0,1.43 1.17,2.61 2.61,2.61l27.64 0c1.43,0 2.6,-1.17 2.6,-2.61 0,-1.43 -1.17,-2.6 -2.6,-2.6z"/>
   <path class="fil0" d="M135.07 67.83l2.21 -2.21c1.02,-1.02 1.02,-2.66 0,-3.67 -1.02,-1.02 -2.66,-1.02 -3.67,0l-6.25 6.25c-0.5,0.5 -0.76,1.15 -0.76,1.85 0,0.7 0.29,1.36 0.76,1.85l6.25 6.25c0.52,0.52 1.17,0.76 1.85,0.76 0.68,0 1.33,-0.26 1.85,-0.76 1.02,-1.02 1.02,-2.66 0,-3.67l-1.17 -1.17c13.02,2.76 22.82,14.33 22.82,28.16 0,1.43 1.17,2.61 2.61,2.61 1.43,0 2.6,-1.17 2.6,-2.61 -0.05,-17.11 -12.71,-31.23 -29.1,-33.63l0 0z"/>
   <path class="fil0" d="M83.23 148.87c-1.02,-1.02 -2.68,-1.02 -3.7,0 -1.02,1.02 -1.02,2.66 0,3.67l1.2 1.2c-10.08,-2.14 -18.26,-9.56 -21.41,-19.25l-5.42 0c3.49,12.87 14.41,22.74 27.85,24.7l-2.21 2.21c-1.02,1.02 -1.02,2.66 0,3.67 0.52,0.52 1.17,0.76 1.85,0.76 0.68,0 1.33,-0.23 1.85,-0.76l6.25 -6.25c0.5,-0.5 0.76,-1.15 0.76,-1.85 0,-0.68 -0.26,-1.35 -0.76,-1.85l-6.25 -6.25z"/>
  </g>
 </g>
</svg>
