<?xml version="1.0" encoding="UTF-8"?>
<!DOCTYPE svg PUBLIC "-//W3C//DTD SVG 1.1//EN" "http://www.w3.org/Graphics/SVG/1.1/DTD/svg11.dtd">
<!-- Creator: CorelDRAW -->
<svg xmlns="http://www.w3.org/2000/svg" xml:space="preserve" width="0.875386in" height="0.696665in" version="1.1" style="shape-rendering:geometricPrecision; text-rendering:geometricPrecision; image-rendering:optimizeQuality; fill-rule:evenodd; clip-rule:evenodd"
viewBox="0 0 850.23 676.65"
 xmlns:xlink="http://www.w3.org/1999/xlink"
 xmlns:xodm="http://www.corel.com/coreldraw/odm/2003">
 <defs>
  <style type="text/css">
   <![CDATA[
    .fil0 {fill:#0B613A;fill-rule:nonzero}
   ]]>
  </style>
 </defs>
 <g id="Layer_x0020_1">
  <metadata id="CorelCorpID_0Corel-Layer"/>
  <path class="fil0" d="M720.93 224.96c-10.62,-14.18 -26.58,-21.26 -44.28,-21.26l-74.39 0 0 -21.26c0,-26.57 -21.26,-49.59 -49.6,-49.59l-141.7 0c5.31,19.48 7.09,38.97 7.09,60.23 0,123.99 -100.97,228.49 -226.73,228.49 -44.28,0 -86.79,-12.4 -116.91,-31.88l0 85.03 775.84 0 0 -46.05c0,-21.26 -7.09,-40.75 -19.49,-56.69l-109.82 -147.02zm-527.86 159.42c108.05,0 191.3,-88.57 191.3,-193.08 0,-106.27 -86.79,-191.29 -191.3,-191.29 -106.28,-0.01 -193.07,86.79 -193.07,191.29 0,106.29 85.03,193.08 193.07,193.08zm-21.26 -318.84c0,-10.62 8.86,-19.48 19.49,-19.48 10.63,0 21.26,8.86 21.26,19.48l0 100.97c1.77,1.77 69.09,69.07 65.54,65.53 8.86,8.86 7.09,21.26 0,28.35 -7.08,7.09 -19.48,7.09 -28.34,0 -1.78,-1.77 -76.17,-76.17 -70.86,-70.86 -5.31,-5.31 -7.09,-12.4 -5.31,-19.49 -1.78,-3.54 0,-1.77 -1.78,-104.51zm109.83 554.43c0,-30.12 -24.8,-56.69 -56.69,-56.69 -31.88,0 -56.69,26.56 -56.69,56.69 0,31.88 24.8,56.68 56.69,56.68 31.88,0 56.69,-24.8 56.69,-56.68zm483.57 0c0,-30.12 -24.8,-56.69 -56.69,-56.69 -31.88,0 -56.68,26.56 -56.68,56.69 0,31.88 24.8,56.68 56.68,56.68 31.89,0 56.69,-24.8 56.69,-56.68zm-689.05 -56.69c0,24.8 19.49,44.28 44.28,44.28l14.18 0c5.32,-44.28 44.28,-79.71 90.34,-79.71 46.05,0 85.03,33.66 90.34,79.71l302.9 0c5.32,-44.28 44.28,-79.71 90.34,-79.71 46.05,0 85.02,33.66 90.34,79.71l5.32 0c24.8,0 44.28,-19.49 44.28,-44.28l0 -65.55 -772.31 0.01 -0.01 65.53zm561.52 -162.96l0 -162.96 38.97 0c5.32,0 12.4,3.54 15.94,7.08l109.82 143.48c1.78,3.54 5.32,7.09 7.09,10.63l-171.82 0 0 1.77z"/>
 </g>
</svg>
