<svg xmlns="http://www.w3.org/2000/svg" xmlns:xlink="http://www.w3.org/1999/xlink" enable-background="new 0 0 64 64" height="64px" id="Layer_1" version="1.0" viewBox="0 0 64 64" width="64px" xml:space="preserve"><circle cx="44" cy="38" fill="none" r="19" stroke="#15AB68" stroke-miterlimit="10" stroke-width="2"/><circle cx="44" cy="38" fill="none" r="13" stroke="#15AB68" stroke-miterlimit="10" stroke-width="2"/><polyline fill="none" points="30,51 1,51 1,57 38,57 38,56 " stroke="#15AB68" stroke-miterlimit="10" stroke-width="2"/><polyline fill="none" points="27,45 3,45 3,51 30,51 " stroke="#15AB68" stroke-miterlimit="10" stroke-width="2"/><polyline fill="none" points="26,39 5,39 5,45 27,45 " stroke="#15AB68" stroke-miterlimit="10" stroke-width="2"/><polyline fill="none" points="26,33 1,33 1,39 26,39 " stroke="#15AB68" stroke-miterlimit="10" stroke-width="2"/><polyline fill="none" points="29,27 3,27 3,33 26,33 " stroke="#15AB68" stroke-miterlimit="10" stroke-width="2"/><polyline fill="none" points="35,21 1,21 1,27 29,27 " stroke="#15AB68" stroke-miterlimit="10" stroke-width="2"/><polyline fill="none" points="40,20 40,15 3,15 3,21 35,21 " stroke="#15AB68" stroke-miterlimit="10" stroke-width="2"/><rect fill="none" height="6" stroke="#15AB68" stroke-miterlimit="10" stroke-width="2" width="37" x="1" y="9"/></svg>