<svg width="32" height="32" viewBox="0 0 32 32" fill="none" xmlns="http://www.w3.org/2000/svg">
<g clip-path="url(#clip0)">
<path d="M20.3204 17.3858L20.3411 17.3639L20.3608 17.341C20.9389 16.6688 21.613 15.5256 21.613 14.1843V14.1841C21.6126 11.978 19.7257 10.3076 17.4979 10.3614C16.6205 10.3664 15.91 10.7345 15.3731 11.1574C14.8361 10.7345 14.1255 10.3664 13.2482 10.3614C11.0205 10.3077 9.13347 11.978 9.13305 14.1841V14.1843C9.13305 15.5256 9.80717 16.6688 10.3853 17.341L10.405 17.3639L10.4257 17.3859L14.4082 21.5846C14.9327 22.1376 15.8137 22.1376 16.3381 21.5846L20.3204 17.3858Z" stroke="black" stroke-width="2.48"/>
<path d="M28.0373 20.4998C28.6586 18.9498 29.0004 17.5845 29.0004 15.8125C29.0004 9.35749 24.4646 3.96189 18.4062 2.63916" stroke="black" stroke-width="2.48" stroke-linecap="round" stroke-linejoin="round"/>
<path d="M12.6274 2.63916C6.56908 3.96189 2.0332 9.35749 2.0332 15.8125C2.0332 17.1088 2.21613 18.3623 2.55757 19.5488" stroke="black" stroke-width="2.48" stroke-linecap="round" stroke-linejoin="round"/>
<path d="M6.08301 24.1543C8.51849 27.2858 11.3442 29.2962 15.583 29.2962C19.3045 29.2962 22.669 27.7466 25.083 25.2491" stroke="black" stroke-width="2.48" stroke-linecap="round" stroke-linejoin="round"/>
<path d="M9.27167 6.40955L7.79404 2.09895C7.49711 1.23274 8.23757 0.365286 9.13965 0.522555L13.7972 1.33455C14.7322 1.49756 15.1197 2.62796 14.4813 3.3303L11.3014 6.8289C10.6855 7.50652 9.56859 7.27576 9.27167 6.40955Z" fill="black"/>
<path d="M26.5361 15.3693L31.0172 16.1964C31.9177 16.3626 32.3104 17.4333 31.7308 18.1423L28.7383 21.8025C28.1376 22.5373 26.9625 22.3204 26.6636 21.4196L25.1749 16.9323C24.8866 16.0632 25.6356 15.2031 26.5361 15.3693Z" fill="black"/>
<path d="M10.7057 25.6318L7.68157 29.0255C7.07152 29.7101 5.95062 29.4886 5.64683 28.6234L4.09123 24.193C3.77767 23.2999 4.5698 22.411 5.49294 22.6199L10.0726 23.6566C10.967 23.8591 11.3157 24.9471 10.7057 25.6318Z" fill="black"/>
</g>
<defs>
<clipPath id="clip0">
<rect width="32" height="32" fill="white"/>
</clipPath>
</defs>
</svg>
