<svg width="32" height="32" viewBox="0 0 32 32" fill="none" xmlns="http://www.w3.org/2000/svg">
<g clip-path="url(#clip0_13955_233011)">
<path fill-rule="evenodd" clip-rule="evenodd" d="M11.8106 1.54408C13.0678 0.275375 15.1061 0.275378 16.3634 1.54408L19.5261 4.73572C20.7833 6.00442 20.7833 8.0614 19.5261 9.33011L12.4732 16.4475C11.4486 17.4814 11.4486 19.1577 12.4732 20.1917C13.4977 21.2256 15.1589 21.2256 16.1834 20.1917L23.2363 13.0743C24.4936 11.8056 26.5319 11.8056 27.7891 13.0743L30.9517 16.2658C32.2089 17.5345 32.2089 19.5915 30.9517 20.8602L23.8237 28.0534C18.538 33.3874 9.96822 33.3874 4.68254 28.0534C-0.603135 22.7194 -0.603131 14.0713 4.68254 8.73729L11.8106 1.54408ZM14.6261 3.29721C14.3284 2.99672 13.8456 2.99672 13.5478 3.29721L6.41979 10.4904C2.09356 14.8562 2.09356 21.9345 6.41978 26.3003C10.746 30.6661 17.7602 30.666 22.0864 26.3003L29.2145 19.1071C29.5122 18.8066 29.5122 18.3194 29.2145 18.0189L26.0519 14.8274C25.7541 14.5269 25.2713 14.5269 24.9736 14.8274L17.9207 21.9448C15.9367 23.9469 12.72 23.9469 10.7359 21.9448C8.75193 19.9426 8.75192 16.6965 10.7359 14.6944L17.7888 7.57698C18.0866 7.2765 18.0866 6.78933 17.7888 6.48884L14.6261 3.29721Z" fill="#081D34"/>
<path d="M9.98438 5.80316L14.9844 10.8032" stroke="#081D34" stroke-width="2.46809" stroke-linecap="round" stroke-linejoin="round"/>
<path d="M21.0598 17.0347L27.0598 23.0347" stroke="#081D34" stroke-width="2.46809" stroke-linecap="round" stroke-linejoin="round"/>
</g>
<defs>
<clipPath id="clip0_13955_233011">
<rect width="32" height="32" fill="white"/>
</clipPath>
</defs>
</svg>
