<svg width="58" height="60" fill="none" xmlns="http://www.w3.org/2000/svg">
  <path fill="#fff" d="M47 38l4.418 3.86-4.27 4.888-4.418-3.86zM9.27 8l4.418 3.86-4.27 4.888L5 12.887zM3.5 49.5l-1 6.5 5 1.5 29.5-30 4.5 1 9-2 6-9-2.5-7-10.5 8L38 12l6-8-1-1.5h-9.5L27 9l1 6.5 1.5 5.5-26 28.5z"/>
  <path fill-rule="evenodd" clip-rule="evenodd" d="M36.318.034c-.228.016-.454.049-.503.073-.074.036-.34.088-.552.11a4.603 4.603 0 00-.335.092 8.946 8.946 0 01-.525.14c-.316.07-.495.13-.692.235a3.305 3.305 0 01-.525.185c-.474.127-.664.199-.789.297a.395.395 0 01-.2.081c-.054 0-.109.02-.123.042-.014.023-.06.042-.101.042-.041 0-.11.038-.15.084-.043.046-.11.084-.15.084a.187.187 0 00-.123.063c-.029.034-.067.053-.085.042-.019-.012-.134.045-.257.126-.123.08-.246.147-.275.147-.028 0-.146.094-.261.21-.115.115-.22.21-.235.21-.013 0-.122.066-.242.146-.12.081-.238.147-.261.147-.024 0-.094.048-.156.105-.063.058-.138.105-.169.105-.06 0-.134.078-.253.262-.041.064-.099.116-.128.116-.029 0-.08.04-.114.088a.993.993 0 01-.23.196c-.273.175-.622.497-.733.679-.058.093-.135.17-.173.17-.037 0-.104.05-.147.112-.11.156-.405.49-.467.53a1.312 1.312 0 00-.187.23c-.075.11-.15.217-.17.24-.035.045-.175.302-.452.832-.095.18-.227.406-.296.5a.838.838 0 00-.123.209c0 .02-.05.146-.11.277-.06.131-.12.314-.133.406a.774.774 0 01-.081.26 1.2 1.2 0 00-.097.354 1.98 1.98 0 01-.168.52c-.101.201-.138.342-.166.641-.02.211-.05.406-.067.434-.1.161-.165 1.634-.092 2.072.023.138.05.327.059.42.023.224.094.566.193.923l.115.42c.076.287.634 2.002.779 2.391.06.162.173.432.253.6.08.168.144.313.144.322 0 .017.226.51.462 1.009l.377.797c.217.457.712 1.401.81 1.542.043.064-.004.128-.351.483-.22.225-.49.516-.597.646-.286.346-1.033 1.098-1.54 1.553a98.242 98.242 0 00-1.992 1.925c-3.072 3.032-3.919 3.852-4.794 4.65-.868.791-1.87 1.81-2.319 2.358-.122.15-.379.443-.569.65-.19.208-.41.452-.487.543-.078.091-.385.412-.682.714-.74.75-1.803 1.876-2.083 2.204-.24.281-.69.772-1.276 1.387a20.754 20.754 0 00-1.662 1.954c-1.019 1.375-1.297 1.731-1.741 2.228-.746.834-1.225 1.387-1.342 1.546a9.335 9.335 0 01-.446.524c-.178.197-.394.452-.48.567a2.963 2.963 0 01-.245.294c-.125.118-.677.738-.987 1.109a29.194 29.194 0 01-1.452 1.582c-.646.654-1.238 1.361-1.647 1.97a6.09 6.09 0 01-.533.63c-.198.206-.383.436-.41.51-.028.076-.065.137-.083.137-.067 0-.286.352-.286.46a.819.819 0 01-.08.279c-.071.146-.135.364-.306 1.044-.054.217-.011 1.297.066 1.658.196.918.465 1.773.752 2.392.378.818.49 1.044.531 1.07.025.014.044.063.044.107 0 .12.421.665.578.748.048.026.101.09.117.142.034.112.234.308.354.346.046.015.084.062.084.105 0 .106.194.3.4.4.091.046.176.092.188.104.021.022.118.07.543.27.126.06.28.108.341.108.062 0 .23.037.372.083.21.066.34.079.671.064.227-.01.495-.04.596-.065.101-.026.301-.064.444-.084.143-.02.333-.074.422-.12.089-.044.283-.104.432-.13.149-.027.3-.072.334-.1.066-.054.153-.096.467-.229.613-.259 1.648-1.163 2.083-1.82.059-.09.326-.326.593-.526.587-.439.707-.54 1.224-1.034.696-.664 2.439-2.353 2.489-2.411.026-.03.151-.163.278-.294.127-.131.322-.351.433-.49.241-.3 1.215-1.334 1.844-1.956.248-.245.45-.465.45-.488 0-.023.24-.257.53-.52.292-.262.706-.675.92-.918.424-.48.74-.81 1.03-1.07.102-.093.299-.298.438-.456.195-.223 1.307-1.368 2.224-2.29.046-.047.413-.402.815-.789a48.988 48.988 0 001.514-1.502c.104-.108.396-.406.65-.661.861-.866 1.112-1.128 1.112-1.162 0-.02.137-.154.305-.301.167-.147.32-.29.338-.32.018-.029.112-.123.208-.21.172-.154.34-.322.436-.435.027-.032.404-.397.839-.813.434-.415 1.111-1.068 1.504-1.45.393-.382.873-.845 1.067-1.028.194-.183.518-.499.72-.701.203-.202.442-.43.532-.505.09-.076.28-.272.422-.436.284-.33 1.874-1.912 2.107-2.096.08-.063.29-.249.465-.412l.729-.674a12.84 12.84 0 001.111-1.118c.172-.193.333-.37.359-.392.026-.024.125-.146.22-.273.096-.127.23-.294.3-.37l.125-.139.16.102c.089.056.197.142.241.192a.99.99 0 00.273.178l.406.188c.118.055.249.1.29.1.042 0 .173.029.29.064.37.109.914.237 1.263.295.184.032.411.077.503.102.189.05 2.46.134 2.749.1a4.74 4.74 0 00.355-.056c.093-.02.32-.067.505-.104.185-.037.45-.095.588-.128.138-.034.423-.09.633-.125.761-.127 1.74-.436 2.452-.773.15-.072.3-.13.335-.13.035 0 .267-.104.516-.23.25-.128.476-.232.504-.232.028 0 .145-.047.26-.104.116-.056.229-.104.252-.105.023 0 .136-.068.252-.15l.315-.217c.057-.038.17-.12.251-.18.081-.06.213-.136.294-.167.156-.06.231-.112.567-.383.115-.093.25-.185.298-.204.135-.054.553-.329.591-.388.019-.03.166-.176.328-.326a3.2 3.2 0 00.36-.378c.037-.057.177-.208.312-.335.388-.367.431-.418.524-.61a.733.733 0 01.19-.248c.057-.037.104-.093.104-.125 0-.03.037-.066.083-.078.046-.012.102-.071.125-.131.022-.06.06-.11.083-.11.043 0 .212-.334.212-.418 0-.059.141-.316.275-.5a.535.535 0 00.103-.235.27.27 0 01.084-.168c.046-.042.084-.099.084-.127 0-.027.057-.161.127-.297.184-.356.324-.735.358-.968.016-.112.055-.269.087-.35.031-.08.075-.232.097-.335.07-.328.173-.688.238-.83.035-.077.071-.18.08-.232.055-.284.077-.357.152-.488.046-.078.1-.286.123-.461.022-.175.069-.46.103-.633a11.9 11.9 0 00.207-1.723c.026-.525.02-.598-.076-.944a3.022 3.022 0 01-.106-.582.995.995 0 00-.067-.343 1.303 1.303 0 01-.088-.34 2.513 2.513 0 00-.17-.676.8.8 0 01-.058-.259c0-.189-.092-.557-.168-.673-.077-.117-.168-.568-.168-.834 0-.096-.047-.29-.105-.433a1.424 1.424 0 01-.105-.405c0-.1-.053-.23-.164-.402a2.24 2.24 0 01-.23-.477c-.061-.213-.095-.268-.382-.63-.199-.25-.992-.993-1.154-1.081a1.853 1.853 0 01-.22-.14 1.973 1.973 0 00-.41-.238 1.169 1.169 0 01-.21-.123c-.204-.175-.6-.076-.801.201-.067.093-.122.193-.122.224 0 .063-.142.144-.468.266-.225.084-1.052.647-1.42.966a.4.4 0 01-.126.085c-.016 0-.046.035-.067.078-.04.082-.668.644-1.083.97-.295.232-.529.456-.529.508 0 .021-.02.038-.046.038s-.134.09-.242.2a3.84 3.84 0 01-.333.304c-.076.058-.16.13-.189.16a92.898 92.898 0 01-1.217 1.217 4.924 4.924 0 00-.183.184 10.92 10.92 0 01-.811.747 4.77 4.77 0 00-.242.196.416.416 0 01-.136.077c-.046.014-.084.049-.084.076 0 .05-.31.354-.714.7-.121.104-.31.274-.42.378-.109.104-.29.274-.403.378-.113.103-.26.264-.329.356-.067.093-.16.21-.205.261l-.081.093-.13-.108a19.823 19.823 0 01-1.625-1.576 24.59 24.59 0 00-.904-.944c-.343-.342-.798-.83-1.01-1.086a10.65 10.65 0 00-.471-.54c-.08-.072-.08-.083-.016-.207.037-.072.173-.235.303-.362s.305-.318.39-.424c.085-.107.274-.319.42-.471.145-.153.368-.399.495-.548.127-.148.252-.271.278-.274.026-.002.079-.05.116-.108a2.58 2.58 0 01.257-.293c.103-.103.188-.216.188-.25 0-.033.049-.098.108-.145.059-.046.165-.156.235-.244.07-.088.144-.155.163-.15.02.005.121-.117.227-.273.188-.277.264-.346.66-.602a1.09 1.09 0 00.288-.27c.048-.08.177-.214.284-.3.311-.245.6-.53.638-.628.02-.05.137-.158.261-.24.124-.082.385-.3.58-.484.485-.459.54-.507.583-.507.02 0 .08-.07.132-.154.052-.084.195-.256.318-.38.123-.125.223-.25.224-.277 0-.027.072-.125.16-.217.195-.203.254-.31.327-.586.078-.292.072-.497-.019-.615a1.19 1.19 0 01-.107-.163 3.044 3.044 0 00-.09-.168.827.827 0 01-.061-.327c-.001-.27-.078-.432-.262-.547a7.973 7.973 0 01-.326-.222c-.216-.154-.949-.538-1.322-.693a8.003 8.003 0 00-.672-.224l-.776-.226a7.521 7.521 0 00-.777-.173C41.804.582 40.978.4 40.591.26c-.641-.232-.95-.264-2.495-.258-.75.002-1.55.017-1.778.033zM9.391 2.426c-.215.04-.93.388-1.038.504-.448.485-.419.436-.45.772a3.133 3.133 0 01-.157.661c-.07.19-.14.425-.157.52a1.3 1.3 0 01-.158.378 5.1 5.1 0 00-.19.33c-.034.07-.094.182-.131.252a.564.564 0 00-.069.202c0 .042-.076.183-.168.312a1.62 1.62 0 00-.215.406.608.608 0 01-.075.192c-.067.048-.214.29-.214.354 0 .059-.116.251-.368.609-.04.056-.161.215-.27.352a2.92 2.92 0 00-.291.443 2.227 2.227 0 01-.274.402c-.1.115-.181.224-.181.242a.785.785 0 01-.147.187.937.937 0 00-.147.18c0 .04-.515.555-.687.69a2.49 2.49 0 01-.291.192.972.972 0 00-.26.243.728.728 0 01-.198.198c-.106.037-.491.305-.673.468-.087.077-.195.14-.241.14-.047 0-.087.019-.09.042-.01.083-.017.106-.047.153-.041.065-.007.928.04.992.02.028.073.164.118.303.044.138.092.261.107.273.015.011.068.134.119.272.09.249.192.486.263.609.02.035.053.103.074.153.1.23.303.392.603.483.163.05.345.115.404.146.06.031.146.057.192.058.107 0 .48.113.541.163.026.02.176.077.334.125.157.049.334.126.392.172.058.046.205.13.325.187.125.059.38.255.595.458.336.316.407.412.655.873.32.598.384.798.47 1.464.034.267.08.534.104.594.023.06.063.229.09.374.026.146.092.408.148.583.058.184.108.463.118.662.01.189.057.518.105.732l.196.883c.086.389.141.54.26.713.082.122.178.237.212.257.033.02.167.138.297.262.169.162.281.234.393.252.086.015.149.039.14.054-.01.015.062.032.158.037.373.02.447.031.447.064 0 .019.017.024.037.012.02-.013.1-.03.18-.04.29-.037.707-.29.707-.43 0-.034.028-.072.063-.085.034-.014.063-.048.063-.077 0-.03.039-.103.087-.164.104-.132.268-.424.51-.907l.178-.357.008-.693c.017-1.352.061-1.918.184-2.35.043-.15.079-.31.08-.357 0-.246.168-.847.28-1.005a.328.328 0 00.058-.152c0-.066.103-.279.353-.73.063-.114.144-.293.18-.397.035-.105.124-.285.196-.4.073-.117.157-.258.186-.316.06-.117.197-.345.32-.529.044-.067.133-.207.198-.31.334-.539.481-.718.689-.836.205-.117.485-.406.596-.616.03-.056.072-.101.095-.101.022 0 .04-.027.04-.06s.03-.09.066-.126c.036-.036.052-.09.035-.118-.017-.03-.014-.038.005-.021.035.032.272-.43.272-.529a.31.31 0 01.058-.133c.08-.116.082-.586.004-.822a.918.918 0 01-.057-.232c.028-.112-.155-.404-.327-.52a1.072 1.072 0 00-.219-.125c-.017 0-.164-.101-.325-.225a3.428 3.428 0 00-.564-.345c-.373-.166-.662-.35-.69-.44a.638.638 0 00-.16-.194 1.402 1.402 0 01-.232-.286 4.189 4.189 0 00-.287-.4 1.917 1.917 0 01-.386-.88 1.272 1.272 0 00-.096-.315c-.085-.162-.286-.866-.286-.999 0-.172-.133-.712-.216-.877a.854.854 0 01-.079-.315c0-.087-.02-.234-.042-.327a6.446 6.446 0 01-.082-.449 2.134 2.134 0 00-.124-.461c-.044-.1-.124-.29-.176-.423a1.36 1.36 0 00-.17-.323c-.042-.045-.076-.1-.076-.12 0-.054-.539-.547-.67-.614-.246-.125-.802-.174-1.177-.103zm29.775.898c.34.153.731.316.763.316.019 0 .091.03.16.066.07.037.259.074.42.082.162.008.35.032.42.052.07.02.19.03.268.02.079-.009.154 0 .168.02.042.062.374.18.506.18.068 0 .132.014.143.031.026.043-.355.504-.49.592-.095.063-.288.247-.9.856a2.34 2.34 0 01-.335.286 1.464 1.464 0 00-.296.303c-.1.13-.324.355-.5.5-.174.145-.366.34-.424.432-.162.258-.41.542-.84.96-.216.21-.419.432-.45.494-.091.174-.477.598-.725.794-.123.098-.242.217-.264.266a2.065 2.065 0 01-.091.172c-.356.589-.535 1.061-.63 1.659a3.416 3.416 0 00-.045.607l.034.432c.014.168.095.38.34.88.177.364.353.726.391.807.038.08.2.336.36.567.16.23.393.57.518.755.125.185.299.42.385.525.086.103.187.246.224.317.036.071.148.215.247.32.1.106.267.292.37.416.104.123.284.322.4.441.114.12.26.28.323.358.148.184.587.627.908.917.14.127.36.357.487.512.127.154.27.292.315.306.047.015.14.082.207.15.068.068.158.124.2.125.043.001.127.074.188.163.062.088.179.212.261.275.133.101.197.116.57.137.491.027 1.003-.043 1.226-.167.086-.047.193-.075.241-.063.103.027.593-.096.802-.202.34-.172.587-.445.587-.65 0-.072.21-.258.424-.376.063-.034.257-.195.43-.357.174-.161.438-.395.588-.518.15-.124.283-.269.296-.322.017-.066.084-.12.213-.169a.973.973 0 00.368-.28 1.42 1.42 0 01.304-.273c.166-.087.879-.66.979-.788a1.29 1.29 0 01.266-.217c.429-.27.497-.317.497-.349 0-.018.127-.136.283-.262.156-.126.406-.357.556-.514.15-.156.297-.305.327-.331.176-.152.513-.452.701-.624.12-.11.238-.2.263-.2.024 0 .13-.083.236-.186a8.17 8.17 0 01.485-.42c.162-.13.314-.272.338-.317a.365.365 0 01.127-.127c.072-.038.09-.027.128.073.025.064.072.259.105.432.097.502.19.893.229.968.043.08.12.537.152.9.012.138.05.374.083.524l.081.368c.011.052-.01.279-.047.503-.19 1.148-.261 1.462-.46 2.025-.109.311-.233.68-.275.818-.163.54-.416 1.19-.58 1.49a21.47 21.47 0 00-.378.734c-.112.231-.246.457-.297.504a.863.863 0 00-.157.205.9.9 0 01-.186.226.908.908 0 00-.188.229c-.057.11-.837.913-.888.913-.02 0-.268.203-.408.333-.046.043-.187.14-.314.216a3.29 3.29 0 00-.368.256 1.732 1.732 0 01-.273.187.621.621 0 00-.186.142c-.028.039-.207.15-.399.246a6.856 6.856 0 00-.474.258c-.147.096-.13.089-.483.21-.15.05-.367.135-.482.187l-.378.168c-.092.04-.3.09-.461.11-.475.058-.56.073-.64.112a.841.841 0 01-.242.047 2.006 2.006 0 00-.69.197c-.113.058-.26.076-.651.08a4.8 4.8 0 01-.631-.02 1.485 1.485 0 00-.378.001 1.788 1.788 0 01-.462-.012 5.423 5.423 0 00-.65-.056c-.587-.02-.922-.056-1.02-.109a.687.687 0 00-.181-.059 26.779 26.779 0 01-.195-.031 9.602 9.602 0 00-.724-.092c-.248-.02-.287-.029-.491-.12a.948.948 0 00-.193-.068c-.02 0-.071-.038-.113-.084-.041-.046-.11-.084-.152-.084-.087 0-.38-.103-.547-.192a.5.5 0 00-.173-.06.168.168 0 01-.11-.058c-.065-.079-.24-.11-.765-.136-.395-.02-.47-.012-.658.069-.267.115-.318.174-.403.471-.046.16-.103.264-.171.308a1.191 1.191 0 00-.24.28l-.215.331c-.043.066-.096.12-.117.12-.05 0-.495.448-.618.621-.146.205-1.05 1.198-1.13 1.241-.04.022-.141.1-.225.176a.958.958 0 01-.235.162.283.283 0 00-.134.123.54.54 0 01-.174.17c-.068.04-.123.088-.123.108 0 .02-.091.103-.204.185a1.562 1.562 0 00-.298.287c-.053.076-.17.194-.262.263a7.098 7.098 0 00-.698.672 2.999 2.999 0 01-.143.147c-.34.317-1.4 1.428-1.573 1.649-.122.154-.3.331-.4.395-.275.178-.642.505-.765.683a.683.683 0 01-.236.212c-.069.029-.258.2-.422.38-.163.181-.327.339-.365.351-.038.012-.182.157-.32.322-.339.403-.638.7-.878.869a1.175 1.175 0 00-.273.263c-.099.162-.448.522-.911.939-.454.408-.953.912-1.1 1.112-.06.081-.172.213-.247.293a.739.739 0 00-.137.176c0 .016-.037.041-.082.056-.044.014-.172.11-.283.212a1.335 1.335 0 01-.23.187c-.017 0-.072.075-.124.168-.051.092-.124.176-.16.188-.037.012-.151.137-.254.278a5.534 5.534 0 01-.608.637c-.231.209-.449.424-.483.478a.43.43 0 01-.199.143.553.553 0 00-.23.178c-.11.152-.398.437-.637.628a1.23 1.23 0 00-.238.253 4.148 4.148 0 01-.564.662 15.98 15.98 0 00-.252.244l-.518.517c-.71.704-.966.983-1.391 1.509-.47.581-.654.77-.831.849a.54.54 0 00-.234.209.628.628 0 01-.194.207.763.763 0 00-.214.228c-.128.215-.406.502-.585.603a1.291 1.291 0 00-.31.308c-.09.124-.208.245-.262.27-.054.024-.098.06-.098.077a.469.469 0 01-.104.145c-.058.062-.258.288-.446.504-.188.215-.42.468-.515.563a4.119 4.119 0 00-.313.356c-.167.22-.507.61-.744.85a3.357 3.357 0 00-.332.42 1.48 1.48 0 01-.326.354c-.176.115-.393.332-.744.743a6.304 6.304 0 01-.531.575 4.904 4.904 0 00-.322.356c-.71.861-.703.853-.874 1.002a2.11 2.11 0 00-.29.336c-.214.31-.812.874-1.225 1.155-.2.136-.392.248-.424.248a.57.57 0 00-.2.097c-.172.115-.282.166-.395.18-.046.005-.205.03-.354.053-.148.024-.284.035-.3.024-.018-.01-.1.021-.183.07-.162.096-.753.245-.977.246-.11.001-.178-.042-.363-.233a2.174 2.174 0 01-.305-.388 4.383 4.383 0 00-.214-.358c-.075-.112-.137-.226-.137-.254a.711.711 0 00-.12-.215c-.164-.227-.306-.984-.275-1.467.012-.185.027-.429.032-.543.006-.115.033-.214.061-.224.028-.009.042-.032.03-.05-.025-.04.126-.554.223-.757.039-.08.138-.25.222-.377a5.28 5.28 0 00.22-.367c.04-.075.198-.283.355-.462.156-.179.348-.41.427-.514.361-.477 1.123-1.197 1.637-1.548.08-.055.289-.236.462-.403.173-.167.513-.484.755-.704.242-.22.526-.498.63-.617.216-.247.375-.42 1-1.087.246-.262.485-.525.531-.584.046-.058.14-.165.21-.237.351-.365.715-.793.794-.935a.538.538 0 01.178-.199.457.457 0 00.164-.168c.04-.07.103-.16.14-.197.037-.038.124-.14.193-.227.07-.088.178-.22.241-.294a.67.67 0 00.116-.163c0-.015.063-.126.14-.246.134-.207.212-.302.485-.596.064-.07.156-.184.204-.254a2.93 2.93 0 01.257-.302c.092-.096.2-.236.239-.312.07-.137.2-.286.25-.286.036 0 .108-.078.25-.273.069-.092.306-.347.529-.566.222-.22.444-.479.494-.576.05-.097.132-.2.184-.226a.687.687 0 00.178-.156 5.65 5.65 0 01.315-.344c.127-.13.35-.367.496-.527.146-.16.405-.442.577-.626.171-.185.312-.35.312-.367 0-.018.025-.032.056-.032.03 0 .082-.052.115-.115s.088-.15.122-.194c.12-.15 1.102-1.118 1.135-1.118.019 0 .074-.066.124-.146.111-.18.262-.354.683-.785.178-.184.325-.36.325-.394 0-.033.019-.06.042-.06.023 0 .042-.021.042-.047 0-.043.19-.246.23-.246.035 0 .448-.44.51-.545a.77.77 0 01.22-.208.945.945 0 00.248-.238c.051-.078.113-.143.136-.143.047 0 .281-.204.454-.395.061-.068.262-.274.447-.457.184-.183.364-.375.398-.426a3.09 3.09 0 01.357-.345c.306-.262.855-.797 1.221-1.19.118-.126.373-.382.567-.569.355-.342.741-.765.808-.885.05-.09.188-.223.23-.223.061 0 .385-.299.385-.356 0-.03.095-.147.212-.259.117-.112.253-.27.302-.35.107-.179.33-.419.388-.42.024 0 .1-.067.168-.15.163-.194.851-.874.904-.892.023-.008.101-.102.175-.21.074-.108.173-.227.221-.265.172-.136.82-.799.82-.838 0-.021.094-.136.209-.255.115-.118.21-.24.21-.271 0-.031.019-.056.042-.056.023 0 .042-.022.042-.048 0-.027.075-.13.168-.23.092-.1.168-.201.168-.225 0-.087.533-.655.764-.814a.407.407 0 00.142-.168c.016-.049.091-.163.168-.253.186-.217.367-.693.342-.898a.649.649 0 01.012-.24c.018-.05.006-.156-.03-.253a1.768 1.768 0 01-.083-.355c-.025-.233-.172-.658-.274-.792a.369.369 0 01-.076-.173c0-.04-.047-.14-.103-.224a1.249 1.249 0 01-.146-.311.867.867 0 00-.106-.243.403.403 0 01-.064-.204.537.537 0 00-.106-.26.552.552 0 01-.105-.185c0-.026-.075-.177-.168-.335a1.992 1.992 0 01-.168-.328c0-.096-.607-1.293-.718-1.416-.11-.121-.243-.465-.554-1.43-.345-1.065-.406-1.279-.406-1.41 0-.058-.026-.18-.057-.269-.038-.106-.06-.391-.065-.817-.01-.94.081-1.478.424-2.472.281-.816.565-1.394.817-1.665.112-.119.231-.252.266-.295l.226-.28c.09-.11.277-.285.417-.386a8.67 8.67 0 00.618-.52c.2-.183.542-.447.758-.585.217-.139.413-.268.436-.287a6.06 6.06 0 01.294-.197l.398-.258c.081-.052.242-.137.357-.188.115-.051.383-.176.596-.276.225-.107.446-.183.532-.183.083 0 .26-.059.411-.138.146-.076.28-.14.298-.142.227-.023.844-.157 1.436-.31.093-.024.21-.05.26-.059.051-.008.164-.038.25-.066.086-.029.337-.052.558-.052.232 0 .444-.021.502-.05.14-.072.831-.073.99-.002zM9.429 9.336c.327.726 1.157 1.921 1.688 2.428.411.393.398.366.26.548a5.56 5.56 0 01-.252.304.784.784 0 00-.16.25c-.014.055-.112.207-.218.337a2.29 2.29 0 00-.266.404c-.041.092-.18.318-.31.502-.129.184-.235.363-.235.399a.389.389 0 01-.083.169.406.406 0 00-.083.15c0 .026-.035.077-.077.115-.07.063-.085.055-.24-.14-.09-.115-.178-.21-.193-.21-.016 0-.11-.11-.211-.245-.192-.257-.527-.57-.654-.611a.423.423 0 01-.158-.153c-.12-.184-.646-.499-1.154-.69a3.42 3.42 0 01-.262-.11.363.363 0 00-.136-.037c-.105 0-.075-.05.158-.272.367-.347 1.093-1.252 1.507-1.877.108-.164.214-.309.236-.323.039-.025.481-.654.645-.917.103-.166.132-.169.198-.02zm37.71 24.777c-.068.02-.179.046-.244.059-.116.02-.615.255-.658.308-.021.027-.202.13-.469.267a.846.846 0 00-.205.14.171.171 0 01-.11.06c-.099 0-.463.405-.52.577a.498.498 0 01-.133.215c-.086.06-.367.62-.367.732 0 .106-.541 1.07-.652 1.162-.034.028-.061.078-.061.11 0 .031-.02.057-.042.057-.023 0-.042.027-.042.06 0 .034-.076.149-.17.256a1.657 1.657 0 00-.231.346.862.862 0 01-.182.259 1.04 1.04 0 00-.193.254c-.041.081-.184.26-.318.399a13.28 13.28 0 00-.442.482c-.226.264-.333.364-.671.63a7.112 7.112 0 00-.447.387c-.114.11-.272.217-.353.239-.21.058-.516.299-.517.407 0 .05-.03.114-.066.144-.036.03-.055.08-.042.113a.136.136 0 01-.009.11c-.032.05-.039.094-.072.5-.01.134-.03.262-.044.284-.014.022-.01.04.009.04.038 0 .04.24.001.277-.014.014-.01.066.008.116.019.05.025.113.015.142-.01.03 0 .053.023.053s.032.035.021.079c-.025.094.142.23.511.416.139.07.309.187.378.26.142.152.532.429.825.587.255.138 1.459 1.386 1.744 1.809.118.175.288.468.378.65.175.358.256.506.333.605.085.11.308.536.308.589 0 .028.066.191.147.364.08.173.147.33.147.348 0 .019.056.16.124.312.069.152.145.357.17.455.025.098.06.215.08.261l.122.294c.048.116.1.314.115.44.058.499.16.822.307.972.037.038.11.125.161.192.185.243.78.806.862.815.377.044.562.019.805-.108.581-.304 1.03-.662 1.03-.821 0-.04.038-.105.085-.147.046-.042.084-.102.084-.135 0-.033.047-.162.105-.289a1.2 1.2 0 00.105-.31c0-.043.018-.091.041-.105a.112.112 0 00.042-.086c0-.09.33-.776.447-.932.057-.075.09-.136.074-.136-.017 0 0-.033.036-.074a.843.843 0 00.117-.283c.071-.293.325-.77.694-1.306.173-.251.479-.702.68-1.002.429-.643.819-1.063 2.227-2.404.587-.558 1.143-1.11 1.286-1.276.162-.188.354-.57.377-.75.01-.075.042-.153.072-.172.04-.024.04-.034.004-.035-.039 0-.038-.037.003-.158.056-.163.066-.916.016-1.096-.04-.138-.112-.241-.36-.51-.118-.126-.215-.245-.216-.264 0-.019-.018-.023-.039-.01-.02.012-.091-.006-.157-.04a.553.553 0 00-.192-.063c-.04 0-.161-.056-.27-.126-.11-.069-.23-.126-.269-.126-.118 0-.55-.154-.807-.287a2.076 2.076 0 00-.36-.152.416.416 0 01-.205-.144.728.728 0 00-.227-.185c-.367-.177-.877-.71-1.083-1.13-.076-.156-.155-.284-.175-.284-.02 0-.036-.02-.036-.045 0-.024-.085-.132-.189-.239-.104-.107-.189-.211-.189-.232 0-.021-.036-.079-.082-.128-.168-.185-.38-.492-.38-.552 0-.035-.014-.063-.033-.063-.018 0-.107-.146-.197-.325a2.803 2.803 0 00-.219-.38.211.211 0 01-.055-.085c0-.015-.085-.118-.187-.228a2.523 2.523 0 01-.255-.317.742.742 0 00-.19-.2c-.067-.044-.122-.101-.122-.127 0-.084-.403-.466-.57-.54l-.27-.119a.92.92 0 01-.178-.107c-.05-.042-.073-.045-.073-.01 0 .033-.024.037-.074.011-.042-.021-.127-.021-.2 0zm-.146 5c0 .113.327.674.647 1.11.49.666 1.486 1.636 2.147 2.089.101.069.184.146.185.17 0 .025-.078.11-.174.19a3.387 3.387 0 00-.304.287c-.071.078-.288.305-.48.503a5.305 5.305 0 00-.446.507 2.578 2.578 0 01-.184.246.642.642 0 00-.113.179c-.013.043-.042.079-.064.079-.021 0-.039.02-.039.043 0 .044-.143.262-.241.368-.03.03-.053.072-.053.092 0 .02-.056.092-.125.16a1.652 1.652 0 00-.232.327c-.113.213-.222.353-.275.353-.048 0-.207-.272-.207-.354 0-.06-.263-.545-.366-.675a10.697 10.697 0 00-.678-.75 3.002 3.002 0 01-.34-.404c-.088-.128-.205-.257-.262-.287a.548.548 0 01-.174-.176.649.649 0 00-.193-.193.602.602 0 01-.195-.235.877.877 0 00-.192-.262c-.065-.055-.118-.118-.118-.141 0-.022.083-.126.184-.23a8.22 8.22 0 00.468-.56c.157-.204.337-.427.4-.496a3.81 3.81 0 00.234-.297c.066-.094.267-.368.447-.609.18-.24.407-.584.504-.763.168-.31.239-.39.239-.27zm-13.261 7.413c-.5.153-1.312.846-1.654 1.413-.141.233-.151.27-.116.426.033.146.026.184-.05.27-.184.203-.201.248-.26.65l-.06.438c-.002.04-.708.721-.97.936-.129.106-.38.26-.56.342a5.686 5.686 0 00-.552.296c-.205.131-.247.181-.232.279.003.017-.016.031-.042.031-.026 0-.037.037-.025.084.012.046.007.084-.012.084-.034 0-.107.397-.09.49.004.027-.009.06-.03.073-.059.036-.018 1.08.046 1.14.056.055.602.227.717.227.037 0 .103.039.147.086a.398.398 0 00.2.102c.358.053.544.138.766.352.1.095.17.174.155.174-.014 0 .012.04.058.09a.53.53 0 01.11.21c.014.065.043.12.064.12.02 0 .05.047.064.104.015.058.043.105.064.105.02 0 .038.024.039.053 0 .029.038.128.082.22.045.092.082.2.083.239 0 .039.02.083.044.097a.08.08 0 01.035.076.598.598 0 00.06.207c.037.086.1.275.14.42.039.144.096.312.126.372s.043.122.028.136c-.014.015-.002.027.027.027.03 0 .043.027.03.062-.013.033.004.089.038.123.033.033.06.08.06.104 0 .066.254.34.315.34.03 0 .078.03.109.068.062.074.243.16.316.148.026-.004.07.022.1.057.109.131.407.065.734-.164.416-.29.531-.426.825-.969.253-.468.292-.57.324-.867.026-.235.052-.302.162-.414.072-.074.154-.189.181-.256.028-.066.067-.12.087-.12.02 0 .037-.02.037-.042 0-.045.098-.173.226-.297a1.47 1.47 0 01.306-.184c.124-.059.237-.136.25-.17.014-.035.05-.063.08-.063.084 0 .405-.356.539-.6.314-.57.326-1.14.035-1.68a1.154 1.154 0 00-.196-.273 2.999 2.999 0 01-.304-.366 2.04 2.04 0 00-.485-.476 1.718 1.718 0 01-.36-.318c-.154-.225-.252-.545-.24-.784.01-.181-.003-.232-.083-.306-.086-.08-.097-.133-.106-.507-.013-.524-.14-1.157-.283-1.405a2.017 2.017 0 00-.132-.21c-.013-.011-.027-.049-.031-.083-.049-.368-.16-.549-.408-.666-.197-.092-.345-.107-.528-.05zm14.258 7.066c-.064.025-.116.06-.116.08 0 .057.07.037.174-.05.111-.092.106-.095-.058-.03zm-13.755 5.056c-.057.04-.114.08-.126.093a.4.4 0 01-.147.036c-.147.016-.216.068-.147.111.071.044.392-.09.505-.21.111-.12.07-.133-.085-.03z" fill="#000"/>
</svg>
