<svg width="32" height="32" viewBox="0 0 32 32" fill="none" xmlns="http://www.w3.org/2000/svg">
<path d="M27.9486 16.0744C27.9826 16.4617 28 16.8538 28 17.25C28 24.5678 22.0678 30.5 14.75 30.5C7.43223 30.5 1.5 24.5678 1.5 17.25C1.5 9.93223 7.43223 4 14.75 4C15.1716 4 15.5885 4.01969 16 4.05819" stroke="black" stroke-width="2.47" stroke-linecap="round" stroke-linejoin="round"/>
<path d="M15.2576 9.57663C15.1789 9.57415 15.0998 9.57291 15.0204 9.57291C10.9298 9.57291 7.61377 12.889 7.61377 16.9795C7.61377 21.0701 10.9298 24.3862 15.0204 24.3862C19.111 24.3862 22.4271 21.0701 22.4271 16.9795C22.4271 16.9027 22.4259 16.8262 22.4236 16.7499" stroke="black" stroke-width="2.47" stroke-linecap="round" stroke-linejoin="round"/>
<circle cx="15.2423" cy="16.7579" r="1.40068" stroke="black" stroke-width="1.97542" stroke-linecap="round" stroke-linejoin="round"/>
<path d="M25.6927 12.2076L26.566 13.0809L25.6927 12.2076ZM29.3463 6.56621L28.8307 7.68843L29.3463 6.56621ZM29.6484 8.25188L30.5217 9.12516L29.6484 8.25188ZM22.4498 11.467L22.9654 10.3447L22.4498 11.467ZM26.1034 5.82558L25.2301 4.9523L26.1034 5.82558ZM22.1476 9.78124L23.0209 10.6545L22.1476 9.78124ZM20.5946 7.10947L24.5503 3.15376L22.8038 1.40721L18.8481 5.36292L20.5946 7.10947ZM21.5842 8.96349L20.6333 6.89383L18.3888 7.92505L19.3398 9.99472L21.5842 8.96349ZM25.2301 4.95225L21.2744 8.90796L23.0209 10.6545L26.9766 6.69881L25.2301 4.95225ZM24.2405 3.09823L25.1914 5.1679L27.4359 4.13667L26.4849 2.067L24.2405 3.09823ZM25.2301 4.9523L21.2744 8.90801L23.0209 10.6546L26.9766 6.69885L25.2301 4.9523ZM29.8619 5.444L27.7922 4.49307L26.761 6.7375L28.8307 7.68843L29.8619 5.444ZM26.566 13.0809L30.5217 9.12516L28.7751 7.37861L24.8194 11.3343L26.566 13.0809ZM21.9342 12.5892L24.0038 13.5401L25.0351 11.2957L22.9654 10.3447L21.9342 12.5892ZM24.8194 11.3343C24.8761 11.2776 24.9622 11.2622 25.0351 11.2957L24.0038 13.5401C24.8699 13.938 25.892 13.7548 26.566 13.0809L24.8194 11.3343ZM28.8307 7.68843C28.7093 7.63267 28.6807 7.47304 28.7751 7.37861L30.5217 9.12516C31.6437 8.00315 31.3037 6.10647 29.8619 5.444L28.8307 7.68843ZM21.2744 8.90801C20.1524 10.03 20.4923 11.9267 21.9342 12.5892L22.9654 10.3447C23.0867 10.4005 23.1154 10.5601 23.0209 10.6546L21.2744 8.90801ZM26.9766 6.69885C26.9199 6.75557 26.8339 6.77099 26.761 6.7375L27.7922 4.49307C26.9262 4.09517 25.904 4.27838 25.2301 4.9523L26.9766 6.69885ZM26.9766 6.69881C27.6505 6.02489 27.8338 5.0027 27.4359 4.13667L25.1914 5.1679C25.1579 5.09501 25.1734 5.00897 25.2301 4.95225L26.9766 6.69881ZM19.3398 9.99472C20.0022 11.4366 21.8989 11.7765 23.0209 10.6545L21.2744 8.90796C21.3688 8.81353 21.5284 8.84214 21.5842 8.96349L19.3398 9.99472ZM24.5503 3.15376C24.4559 3.24819 24.2963 3.21958 24.2405 3.09823L26.4849 2.067C25.8225 0.625153 23.9258 0.285201 22.8038 1.40721L24.5503 3.15376ZM18.8481 5.36292C18.1741 6.03684 17.9909 7.05902 18.3888 7.92505L20.6333 6.89383C20.6667 6.96672 20.6513 7.05275 20.5946 7.10947L18.8481 5.36292Z" fill="black"/>
<path d="M28.2585 3.74139L14.5405 17.4595" stroke="black" stroke-width="2.47" stroke-linecap="round" stroke-linejoin="round"/>
</svg>
