<svg width="64" height="64" viewBox="0 0 64 64" fill="none" xmlns="http://www.w3.org/2000/svg">
<path fill-rule="evenodd" clip-rule="evenodd" d="M9.94812 8.33812C9.2124 8.9086 8.91391 10.6363 8.76991 15.1527C8.64926 18.936 8.68913 19.6316 9.06001 20.1976C9.2966 20.5588 9.75429 20.9191 10.0772 20.9984C10.3998 21.0778 12.1259 20.8436 13.9132 20.478C15.7002 20.1123 17.506 19.8133 17.926 19.8133C18.9061 19.8133 20.1625 19.1644 20.3325 18.5703C20.5473 17.8202 20.6273 10.549 20.4272 9.97691C20.1203 9.09929 19.2416 8.76591 16.8668 8.62585C15.2721 8.53169 14.2308 8.60671 13.3611 8.87844C12.2101 9.23804 12.1136 9.23253 11.9754 8.79713C11.8938 8.53982 11.5651 8.25891 11.2454 8.17341C10.4554 7.96148 10.4294 7.96488 9.94812 8.33812ZM12.5398 26.9954C9.31311 27.403 9.36217 27.3188 9.27247 32.6204C9.20243 36.7667 9.21502 36.8798 9.8141 37.4789C10.3552 38.02 10.7725 38.1141 13.3534 38.2775C16.5392 38.479 18.0217 38.2411 18.7763 37.4075C19.3421 36.7822 19.6927 34.2348 19.7043 30.6682C19.7119 28.3734 19.6395 27.9218 19.1692 27.324C18.6664 26.6848 18.4844 26.6355 16.743 26.6675C15.7078 26.6864 13.8161 26.8341 12.5398 26.9954Z" fill="#6AFDEF"/>
<path fill-rule="evenodd" clip-rule="evenodd" d="M2.35636 0.0816037C0.883079 0.272813 0.953902 -1.30171 1.03652 29.348L1.11284 57.6843L1.895 59.3236C2.8201 61.2616 4.16931 62.5078 6.11734 63.2228C7.96439 63.9008 11.2748 63.9842 36.894 63.9981C56.3187 64.0089 57.1292 63.99 58.1088 63.504C59.4717 62.8275 61.0354 61.1591 61.8323 59.5313C63.2361 56.6629 63.2647 47.371 61.8737 46.1107C61.426 45.7049 60.6577 45.6391 55.5326 45.5659L49.7008 45.4828L49.4957 25.2384C49.3827 14.1039 49.3121 4.161 49.3386 3.14253C49.378 1.6417 49.2888 1.16984 48.8686 0.650769L48.35 0.010524L25.7042 0.000550417C13.249 -0.00495768 2.74246 0.0315062 2.35636 0.0816037ZM46.5095 5.05961C46.5326 6.32202 46.5623 15.9413 46.5751 26.4363L46.5987 45.5179L36.894 45.5242C25.2045 45.5318 18.3807 45.8455 16.8839 46.4446C15.5068 46.9954 15.3332 47.5116 15.1407 51.6248C14.8118 58.6432 13.9231 60.203 10.2526 60.2051C7.9678 60.2064 6.39144 59.6344 5.13507 58.3478L4.10768 57.2961L4.04158 40.0628C4.00512 30.5847 3.9461 18.3931 3.91043 12.9708L3.84539 3.11184L10.2534 3.06541C13.7778 3.03997 16.7189 2.96208 16.7889 2.89205C16.8589 2.82176 23.5652 2.76457 31.692 2.76457H46.4676L46.5095 5.05961ZM21.8535 7.04856C21.3105 7.62639 21.1542 7.66128 20.157 7.4281C19.5422 7.28411 17.0745 7.22614 14.5555 7.29643C10.8648 7.39925 9.87151 7.51045 9.0474 7.91281L8.04203 8.40382L7.90092 14.5676C7.78892 19.4594 7.83141 20.8128 8.10629 21.1249C8.86274 21.9839 20.6257 21.6395 21.5287 20.732C21.8781 20.3808 21.9434 19.5144 21.9434 15.2244V10.1334L23.0807 8.97351C23.9022 8.13549 24.1936 7.64055 24.1299 7.19072C24.0006 6.27586 22.6579 6.19219 21.8535 7.04856ZM28.2384 9.23082C25.7461 9.6198 24.8278 10.2357 25.5119 11.06C25.92 11.5516 41.467 11.5946 41.9562 11.1054C42.4139 10.6477 42.3415 9.90228 41.8119 9.62242C41.3222 9.36354 29.5611 9.0244 28.2384 9.23082ZM15.9086 9.84406L19.054 9.84641L17.0407 11.8598L15.0274 13.8731L13.9601 12.9089C12.7727 11.8362 11.7144 11.6421 11.4578 12.4502C11.2158 13.2132 11.9184 14.6235 13.2157 15.9772C14.9272 17.7634 15.318 17.6719 17.6146 14.9446C18.6548 13.7092 19.5262 12.7353 19.5508 12.7807C19.5752 12.8258 19.5532 14.2369 19.5018 15.9166L19.4079 18.9705L15.9545 19.1386C14.055 19.2309 11.9418 19.3725 11.2585 19.4531L10.016 19.5994L10.0782 14.5629L10.1404 9.52668L11.4518 9.68432C12.1731 9.77088 14.1786 9.84301 15.9086 9.84406ZM28.2775 15.1171C26.2098 15.3354 25.4843 15.6415 25.4843 16.2953C25.4843 17.1701 26.5576 17.3222 32.4964 17.2892C37.4346 17.2614 38.4292 17.1903 38.9881 16.8241C39.6968 16.3596 39.8419 15.6533 39.3333 15.1447C38.9682 14.7796 31.6482 14.7612 28.2775 15.1171ZM10.4771 25.9447C9.36398 26.1068 8.35154 26.3576 8.22695 26.5019C8.10237 26.6461 7.84952 27.5599 7.66539 28.5323C7.24232 30.7646 7.52427 38.6905 8.05252 39.4126C8.31796 39.7756 8.81815 39.8905 10.3158 39.9319C11.3734 39.9613 14.0097 40.0602 16.1743 40.1514C19.9403 40.3104 20.141 40.2933 20.83 39.7512L21.55 39.1849V32.7926C21.55 26.4845 21.5424 26.3951 20.9669 25.9922C20.4964 25.6625 19.6242 25.5901 16.4424 25.6169C14.2746 25.635 11.5903 25.7826 10.4771 25.9447ZM27.2147 26.371C25.3288 26.7083 24.9931 27.482 26.4218 28.1978C27.0274 28.5013 28.7931 28.6041 34.7957 28.6846C42.1786 28.7838 42.4163 28.7712 42.8847 28.2534C43.4389 27.6407 43.2805 26.7303 42.5854 26.5339C41.7073 26.286 28.4742 26.1454 27.2147 26.371ZM18.9271 32.8057V37.363L18.0594 37.5259C17.5823 37.6154 15.8415 37.5621 14.1906 37.4076C12.5401 37.2529 11.0649 37.1259 10.9125 37.1254C10.7455 37.1249 10.5057 35.5892 10.3082 33.2558C10.1283 31.1281 9.92711 29.1255 9.86127 28.8061C9.74508 28.2416 9.81459 28.223 12.3016 28.1503C13.7096 28.1092 15.7762 28.1144 16.8943 28.1619L18.9271 28.2482V32.8057ZM28.3205 31.6079C26.4682 31.797 25.7466 32.1681 25.7466 32.9319C25.7466 33.5459 26.0383 33.6362 29.2186 34.0057C32.5961 34.3984 33.8845 34.1639 34.2627 33.0882C34.4854 32.4545 34.4347 32.2772 33.9089 31.8513C33.2484 31.3167 31.793 31.2532 28.3205 31.6079Z" fill="black"/>
</svg>
