<svg xmlns="http://www.w3.org/2000/svg" xmlns:xlink="http://www.w3.org/1999/xlink" version="1.1" id="Capa_1" x="0px" y="0px" viewBox="0 0 51.873 51.873" style="enable-background:new 0 0 51.873 51.873;" xml:space="preserve">
<g  fill="#000000C7">
<path d="M47.084,20.139c-0.001-0.001-0.002-0.001-0.003-0.002c-0.001-0.001-0.002-0.003-0.002-0.004L26.639,0.284  c-0.389-0.379-1.005-0.378-1.394-0.001L4.795,20.134c-0.004,0.004-0.005,0.009-0.009,0.013c-0.003,0.003-0.008,0.004-0.012,0.008  c-0.679,0.679-1.053,1.581-1.053,2.542v25.581c0,0.991,0.403,1.889,1.053,2.541l0,0l0,0c0.651,0.651,1.55,1.055,2.541,1.055h37.24  c0.955,0,1.844-0.373,2.521-1.042c0.006-0.005,0.014-0.007,0.02-0.012c0.004-0.003,0.005-0.008,0.009-0.012  c0.011-0.011,0.024-0.018,0.034-0.029c0.043-0.044,0.062-0.1,0.095-0.149c0.036-0.053,0.078-0.102,0.102-0.16  c0.026-0.062,0.033-0.125,0.046-0.19c0.012-0.062,0.032-0.12,0.032-0.183c0.001-0.063-0.017-0.124-0.028-0.186  c-0.011-0.064-0.016-0.128-0.04-0.19c-0.022-0.058-0.063-0.107-0.097-0.161c-0.032-0.051-0.05-0.108-0.092-0.153l-12.293-13.42  l11.286-8.904v17.249c0,0.553,0.447,1,1,1s1-0.447,1-1V22.696C48.151,21.728,47.772,20.821,47.084,20.139z M5.724,48.302  c0-0.008-0.002-0.016-0.002-0.025V27.081l11.286,8.904L5.724,48.302z M7.316,49.873c-0.1,0-0.196-0.012-0.291-0.029l13.057-14.253  h11.709l13.057,14.253c-0.095,0.018-0.192,0.029-0.292,0.029H7.316z M33.511,34.507l-0.542-0.592  c-0.189-0.206-0.457-0.324-0.737-0.324h-12.59c-0.28,0-0.548,0.118-0.737,0.324l-0.542,0.592L5.722,24.534v-1.838  c0-0.426,0.166-0.827,0.467-1.128L25.94,2.394l19.738,19.168c0.305,0.302,0.473,0.704,0.473,1.134v1.838L33.511,34.507z"/>
</g>
</svg>