<svg xmlns="http://www.w3.org/2000/svg" viewBox="0 0 1024 1024" role="img">
<g fill="#15AB68">
    <path d="M960 0H64A63.995 63.995 0 000 64v896a63.995 63.995 0 0064 64h896a63.995 63.995 0 0064-64V64a63.995 63.995 0 00-64-64zM317.664 863.341H171.638v-469.48h146.026zm-73.123-533.6a84.542 84.542 0 1184.542-84.54 84.578 84.578 0 01-84.542 84.54zM864 863.342H718.194V634.97c0-54.458-1.098-124.507-75.759-124.507-75.977 0-87.615 59.289-87.615 120.554V863.34H409.013V393.86h139.878v64.12h1.976c19.543-36.89 67.194-75.758 138.122-75.758C836.55 382.223 864 479.501 864 605.983z"/>
</g>
</svg>