<svg xmlns="http://www.w3.org/2000/svg" id="59d37ae6-65f9-4698-9664-7df370676841" data-name="Layer 1" viewBox="0 0 63.87842 63.87842">
  <title>Request a Call</title>
  <circle cx="33.08138" cy="32.38708" r="27" fill="#dcf6ff"/>
  <path d="M33.8813,11.28706h-1a20.80165,20.80165,0,0,0-20.80005,19.9,16.48972,16.48972,0,0,0,.25213,4.24151.70193.70193,0,0,0,.81123.54143l2.73669-.483.4-.1.5-.1,2.739-.51358a.69782.69782,0,0,0,.555-.54585l1.51456-7.39482a.69782.69782,0,0,0-.27977-.7091l-2.208-1.567a.70048.70048,0,0,1-.20358-.92459,16.45124,16.45124,0,0,1,10.9473-7.63289.70126.70126,0,0,1,.8035.50982l.71346,2.63982a.69783.69783,0,0,0,.56693.50755l7.49043,1.15923a.69783.69783,0,0,0,.70322-.32747L41.58125,18.087l.30005-.5.19995-.3,1.41925-2.36535a.702.702,0,0,0-.27335-.98281A22.96986,22.96986,0,0,0,33.8813,11.28706Z" fill="#011b33"/>
  <path d="M49.59444,20.50627,47.232,22.19373a.69337.69337,0,0,0-.168.95158,16.452,16.452,0,0,1,2.51735,11.94174,16.77456,16.77456,0,0,1-29.79609,7.54231.69334.69334,0,0,0-.954-.14941l-2.36995,1.69282a.70268.70268,0,0,0-.15958.98986,20.51,20.51,0,0,0,13.27954,7.92442A21.07348,21.07348,0,0,0,50.58683,20.68333.70222.70222,0,0,0,49.59444,20.50627Z" fill="#fff"/>
  <path d="M30.9814,44.58705a12.45737,12.45737,0,0,0,14.30005-10.2,12.08256,12.08256,0,0,0-1.7925-8.708.69417.69417,0,0,0-.98864-.16935l-2.16759,1.5764a.71027.71027,0,0,0-.20958.92822,8.94219,8.94219,0,0,1,1.15831,5.6727,8.34576,8.34576,0,0,1-9.6,6.9A8.08,8.08,0,0,1,26.692,37.746a.70847.70847,0,0,0-.97142-.15113L23.552,39.1721a.69366.69366,0,0,0-.15156.98241A12.0021,12.0021,0,0,0,30.9814,44.58705Z" fill="#fff"/>
  <circle cx="48.9814" cy="45.88705" r="11.30003" fill="#011b33"/>
  <path d="M54.28359,43.88708H50.9814V40.58483a.69778.69778,0,0,0-.69781-.69775H47.67922a.69779.69779,0,0,0-.69782.69775v3.30225H43.67922a.69779.69779,0,0,0-.69782.69775V47.1892a.69789.69789,0,0,0,.69782.69788H46.9814V51.1892a.69789.69789,0,0,0,.69782.69788h2.60437a.69789.69789,0,0,0,.69781-.69788V47.88708h3.30219a.69789.69789,0,0,0,.69781-.69788V44.58483A.69778.69778,0,0,0,54.28359,43.88708Z" fill="#00e1ff"/>
</svg>