<svg xmlns="http://www.w3.org/2000/svg" xmlns:xlink="http://www.w3.org/1999/xlink" version="1.1" id="Capa_1" x="0px" y="0px" viewBox="0 0 490 490" style="enable-background:new 0 0 490 490;" xml:space="preserve">
<g fill="#15AB68">
	<path d="M489.997,224.578C489.997,100.748,387.555,0,261.635,0C197.775,0,137.371,26.08,94.18,71.905   c-7.576-7.859-25.966-16.977-46.222-1.942L21.779,90.744c-12.062,9.581-19.196,24.036-21.204,42.962   c-5.738,54.052,32.085,139.472,96.35,217.624C165.14,434.273,247.793,490,302.593,490h0.005c14.884,0,27.45-3.982,37.339-11.838   l26.18-20.781c7.176-5,18.793-20.848,11.061-39.058C447.043,378.024,489.997,304.753,489.997,224.578z M353.42,441.391   l-26.178,20.781c-6.191,4.919-14.486,7.411-24.649,7.411c-48.265,0-126.353-53.957-189.896-131.223   c-60.029-72.993-96.93-154.37-91.821-202.502c1.406-13.279,5.987-23.078,13.598-29.124l26.178-20.78   c8.885-6.427,16.527-2.606,19.48,0.912l49.95,60.736c6.168,8.423,0.045,15.906-3.131,18.423   c-14.265,11.33-22.958,28.197-25.141,48.773c-3.48,32.809,10.193,71.543,36.571,103.614   c29.064,35.345,69.245,57.302,104.855,57.297c16.843,0,32.015-4.98,43.869-14.395c6.001-4.76,15.198-4.292,19.49,0.917   l49.95,60.727C363.204,433.021,354.96,439.851,353.42,441.391z M365.375,401.553l-43.009-52.291   c-7.529-8.3-25.417-20.076-47.956-3.937c-8.647,6.192-18.817,9.968-31.178,9.968c-29.659,0.005-63.793-19.101-89.084-49.85   c-22.974-27.933-34.946-61.01-32.031-88.49c1.59-15.008,7.785-26.931,17.531-34.937c8.913-7.322,22.035-27.073,6.205-47.383   L107.31,87.765c39.448-42.886,95.251-67.348,154.325-67.348c5.145,0,10.245,0.192,15.297,0.554v32.115h20.417V23.44   c90.338,15.417,160.851,88.262,170.969,178.698h-32.159v20.417h33.395c0.007,0.675,0.026,1.347,0.026,2.023   C469.58,298.012,429.855,365.096,365.375,401.553z"/>
	<path d="M216.206,256.499l10.695-9.702c28.171-26.671,46.065-46.27,46.065-70.515c0-18.795-12.138-38.193-40.922-38.193   c-15.42,0-28.579,5.662-37.833,13.338l5.756,12.525c6.166-5.05,16.239-11.114,28.375-11.114c19.94,0,26.525,12.329,26.525,25.663   c-0.205,19.804-15.625,36.775-49.767,68.702l-14.183,13.534v10.913h85.331V256.9h-60.043V256.499z"/>
	<path d="M369.401,140.315h-19.54l-59.625,83.854v11.716h62.098v35.766h17.066v-35.766h18.713v-13.941h-18.713V140.315z    M352.335,178.1v43.844H308.53v-0.401l32.7-44.658c3.702-6.059,6.985-11.716,11.105-19.397h0.615   C352.54,164.359,352.335,171.227,352.335,178.1z"/>
</g>
<g>
</g>
<g>
</g>
<g>
</g>
<g>
</g>
<g>
</g>
<g>
</g>
<g>
</g>
<g>
</g>
<g>
</g>
<g>
</g>
<g>
</g>
<g>
</g>
<g>
</g>
<g>
</g>
<g>
</g>
</svg>