<svg xmlns="http://www.w3.org/2000/svg" xmlns:xlink="http://www.w3.org/1999/xlink" id="a9cb376b-67c8-4b7d-8beb-5817394cc6f2" data-name="Layer 1" viewBox="0 0 63.87842 63.87842">
  <defs>
    <clipPath id="a949db05-8bb0-41f1-8951-1d691d2aa2b1">
      <circle cx="32.97657" cy="32.09553" r="27" fill="none"/>
    </clipPath>
  </defs>
  <title>Contact Sales</title>
  <circle cx="32.97657" cy="32.09553" r="27" fill="#f6fcff"/>
  <circle cx="33.02253" cy="32.10587" r="27" fill="#dcf6ff"/>
  <g clip-path="url(#a949db05-8bb0-41f1-8951-1d691d2aa2b1)">
    <polygon points="46.307 39.176 33.395 27.776 31.34 25.966 19.74 38.315 34.406 51.118 46.307 39.176" fill="#fff"/>
    <path d="M56.04792,5.22053,68.11924,17.26662,33.45289,52.28483a.70748.70748,0,0,1-1.00056-.00036L20.94424,42.03634a.70765.70765,0,0,1,.00036-1.00075L39.50909,22.0415Z" fill="#011b33"/>
    <path d="M27.02232,31.239l.47336-3.719a.69484.69484,0,0,1,.77482-.6044L36.43681,27.925a.69482.69482,0,0,1,.60436.77475l-.47337,3.719a.69482.69482,0,0,1-.77481.6044l-8.16632-1.00935A.69483.69483,0,0,1,27.02232,31.239Z" fill="#fff"/>
    <path d="M36.3153,51.87039,46.79717,41.35331a1.0015,1.0015,0,0,0-.04308-1.45469l-2.77984-2.73445a.70756.70756,0,0,0-.998.07214l-10.772,11.04961a.70755.70755,0,0,0,.07208.998l2.6581,2.62441A1.003,1.003,0,0,0,36.3153,51.87039Z" fill="#fff"/>
    <path d="M59.69591,12.97409l-6.67713-6.698L37.379,22.28744a1.12508,1.12508,0,0,0,.01712,1.61362l12.7013,12.15715a1.12508,1.12508,0,0,0,1.57236-.02091l15.7084-15.76124Z" fill="#00e1ff"/>
    <circle cx="50.643" cy="29.03436" r="2.37789" fill="#fff"/>
    <circle cx="50.643" cy="29.03436" r="2.37789" fill="#fff"/>
    <circle cx="50.643" cy="29.03436" r="2.37789" fill="#fff"/>
    <circle cx="50.643" cy="29.03436" r="2.37789" fill="#fff"/>
    <circle cx="50.643" cy="29.03436" r="2.37789" fill="#fff"/>
    <circle cx="50.643" cy="29.03436" r="2.37789" fill="#fff"/>
    <circle cx="50.643" cy="29.03436" r="2.37789" fill="#fff"/>
    <circle cx="50.643" cy="29.03436" r="2.37789" fill="#fff"/>
    <circle cx="50.643" cy="29.03436" r="2.37789" fill="#fff"/>
    <circle cx="50.643" cy="29.03436" r="2.37789" fill="#fff"/>
    <circle cx="50.643" cy="29.03436" r="2.37789" fill="#fff"/>
    <circle cx="50.643" cy="29.03436" r="2.37789" fill="#fff"/>
    <circle cx="50.643" cy="29.03436" r="2.37789" fill="#fff"/>
    <circle cx="50.643" cy="29.03436" r="2.37789" fill="#fff"/>
    <circle cx="50.643" cy="29.03436" r="2.37789" fill="#fff"/>
    <circle cx="50.643" cy="29.03436" r="2.37789" fill="#fff"/>
    <circle cx="50.643" cy="29.03436" r="2.37789" fill="#fff"/>
    <path d="M24.66956,20.09057,10.50385,7.61316-.6729,20.49353,13.36982,32.75317c.01038-.01208.01685-.026.02747-.038Z" fill="#fff"/>
    <polygon points="31.34 25.966 28.514 23.477 17.226 36.12 19.74 38.315 31.34 25.966" fill="#fff"/>
    <path d="M28.05439,21.59778,26.532,20.257a1.54718,1.54718,0,0,0-2.179.13305l-10.994,12.44723a1.30538,1.30538,0,0,0,.11988,1.84752l1.8894,1.64951a1.30538,1.30538,0,0,0,1.83667-.11894L28.18812,23.78674A1.54725,1.54725,0,0,0,28.05439,21.59778Z" fill="#00e1ff"/>
  </g>
  <path d="M28.28463,33.5257a4.611,4.611,0,0,1,3.65458-.97892l-.30189-2.13-3.76221-.76147-3.02946,1.93519Z" fill="#fff"/>
</svg>