<svg xmlns="http://www.w3.org/2000/svg" xmlns:xlink="http://www.w3.org/1999/xlink" enable-background="new 0 0 800 800" height="800px" id="Layer_1" version="1.1" viewBox="0 0 800 800" width="800px" xml:space="preserve"><g fill="#15AB68"><path d="M764.867,562.761c-0.187-8.698-7.288-15.648-15.979-15.648L54.09,547.076   c-5.75,0-11.054,3.087-13.896,8.084s-2.783,11.135,0.152,16.076C45.244,579.473,161.747,773,287.332,773h410.972   c0.66,0.035,1.785,0.069,3.266,0.069c24.365,0,52.905-10.392,59.917-39.565C767.74,707.541,765.18,577.5,764.867,562.761z    M730.403,726.027c-3.273,13.605-21.251,15.068-28.834,15.068c-0.929,0-1.554-0.027-1.642-0.027   c-0.392-0.036-0.775-0.045-1.16-0.045H287.332c-83.613,0-169.345-111.591-203.787-161.971l649.642,0.036   C734.071,633.661,734.017,711.003,730.403,726.027z" fill="#15AB68"/><path d="M50.347,524.854c2.333,0,4.693-0.517,6.901-1.57c1.294-0.625,130.706-62.049,229.24-62.049   c109.583,0,220.992,60.435,222.103,61.04c4.961,2.723,10.978,2.634,15.84-0.249c4.861-2.882,7.847-8.1,7.847-13.757V42.919   c0-8.833-7.159-15.988-15.986-15.988c-205.951,0-468.741,454.637-479.826,473.986c-3.479,6.076-2.601,13.705,2.164,18.825   C41.724,523.079,45.999,524.854,50.347,524.854z M500.303,59.959v422.499c-40.325-18.779-126.182-53.199-213.814-53.199   c-68.527,0-147.844,26.194-196.783,45.394C157.861,365.229,349.251,79.47,500.303,59.959z" fill="#15AB68"/><path d="M578.549,322.485c0,134.903-23.075,177.478-23.262,177.817c-3.552,6.056-2.745,13.72,1.998,18.896   c4.741,5.174,12.303,6.654,18.641,3.648c0.549-0.26,55.239-25.998,95.533-25.998c33.715,0,66.903,24.393,67.455,24.801   c2.837,2.134,6.211,3.204,9.601,3.204c3.158,0,6.325-0.937,9.064-2.82c5.656-3.896,8.189-10.982,6.299-17.582   C738.986,417.821,651.367,135.15,569.07,135.15c-5.112,0-9.917,2.444-12.923,6.575c-3.011,4.13-3.863,9.457-2.294,14.318   C564.972,190.518,578.549,274.086,578.549,322.485z M722.026,476.007c-14.517-6.066-32.181-11.133-50.567-11.133   c-25.396,0-54.204,8.002-75.869,15.621c7.288-29.244,14.934-78.804,14.934-158.01c0-38.978-7.89-96.79-16.813-139.097   C631.678,226.899,683.441,351.133,722.026,476.007z" fill="#15AB68"/><path d="M270.572,606.505c-29.098,0-52.771,23.677-52.771,52.779c0,29.093,23.673,52.771,52.771,52.771   c29.102,0,52.776-23.678,52.776-52.771C323.349,630.182,299.674,606.505,270.572,606.505z M270.572,680.08   c-11.469,0-20.796-9.333-20.796-20.796c0-11.473,9.327-20.806,20.796-20.806s20.801,9.333,20.801,20.806   C291.374,670.747,282.041,680.08,270.572,680.08z" fill="#15AB68"/></g></svg>